<svg width="24" height="24" viewBox="0 0 24 24" fill="none" xmlns="http://www.w3.org/2000/svg">
<path fill-rule="evenodd" clip-rule="evenodd" d="M6.57849 11.1221L7.85905 10.774L8.03606 9.45886C8.29884 7.50639 9.97514 6 12 6C13.6805 6 15.1237 7.03703 15.7153 8.5135L16.072 9.40389L16.9897 9.68308C18.7342 10.2138 20 11.8367 20 13.75C20 16.0972 18.0972 18 15.75 18H14H9H7.5C5.567 18 4 16.433 4 14.5C4 12.8883 5.09113 11.5263 6.57849 11.1221ZM12 4C14.5255 4 16.6866 5.56039 17.5718 7.76968C20.1349 8.54948 22 10.9319 22 13.75C22 17.2018 19.2018 20 15.75 20H14H9H7.5C4.46243 20 2 17.5376 2 14.5C2 11.9629 3.71789 9.827 6.05393 9.19208C6.44851 6.26044 8.96028 4 12 4ZM12.4499 8.5C12.6156 8.5 12.7499 8.63431 12.7499 8.8V13.7198L14.1162 12.3536C14.3114 12.1583 14.628 12.1583 14.8233 12.3536L15.1768 12.7071C15.3721 12.9024 15.3721 13.219 15.1768 13.4142L12.7499 15.8411V15.875H12.716L12.3536 16.2374C12.1583 16.4327 11.8418 16.4327 11.6465 16.2374L11.2841 15.875H11.2499V15.8409L8.82328 13.4142C8.62802 13.219 8.62802 12.9024 8.82328 12.7071L9.17683 12.3536C9.3721 12.1583 9.68868 12.1583 9.88394 12.3536L11.2499 13.7195V8.8C11.2499 8.63431 11.3842 8.5 11.5499 8.5H12.4499Z" fill="#CCCCCC"/>
</svg>
