<svg width="24" height="24" viewBox="0 0 24 24" fill="none" xmlns="http://www.w3.org/2000/svg">
<path d="M17 4H7C5.89543 4 5 4.89543 5 6V18C5 19.1046 5.89543 20 7 20H17C18.1046 20 19 19.1046 19 18V6C19 4.89543 18.1046 4 17 4Z" stroke="#333333" stroke-width="2"/>
<path fill-rule="evenodd" clip-rule="evenodd" d="M8 7.5C8 7.22386 8.22386 7 8.5 7H10.5C10.7761 7 11 7.22386 11 7.5V9.5C11 9.77614 10.7761 10 10.5 10H8.5C8.22386 10 8 9.77614 8 9.5V7.5ZM8 11.5C8 11.2239 8.22386 11 8.5 11H10.5C10.7761 11 11 11.2239 11 11.5V13.5C11 13.7761 10.7761 14 10.5 14H8.5C8.22386 14 8 13.7761 8 13.5V11.5ZM12.5 7C12.2239 7 12 7.22386 12 7.5V9.5C12 9.77614 12.2239 10 12.5 10H14.5C14.7761 10 15 9.77614 15 9.5V7.5C15 7.22386 14.7761 7 14.5 7H12.5Z" fill="#333333"/>
</svg>
