<svg width="24" height="24" viewBox="0 0 24 24" fill="none" xmlns="http://www.w3.org/2000/svg">
<path d="M3 12L6 9V15L3 12Z" fill="#999999"/>
<path fill-rule="evenodd" clip-rule="evenodd" d="M8 7C8 6.44772 8.44772 6 9 6H15.6667C16.219 6 16.6667 6.44772 16.6667 7C16.6667 7.55228 16.219 8 15.6667 8H9C8.44772 8 8 7.55228 8 7ZM8 12C8 11.4477 8.44772 11 9 11H20C20.5523 11 21 11.4477 21 12C21 12.5523 20.5523 13 20 13H9C8.44772 13 8 12.5523 8 12ZM9 16C8.44772 16 8 16.4477 8 17C8 17.5523 8.44772 18 9 18H18.9167C19.469 18 19.9167 17.5523 19.9167 17C19.9167 16.4477 19.469 16 18.9167 16H9Z" fill="#EAEAEA"/>
</svg>
