<svg width="18" height="18" viewBox="0 0 18 18" fill="none" xmlns="http://www.w3.org/2000/svg">
<g clip-path="url(#clip0_1838_1966)">
<path fill-rule="evenodd" clip-rule="evenodd" d="M2.34457 2.34444C5.47091 -0.78148 10.5392 -0.78148 13.6653 2.34444C16.5636 5.24356 16.7742 9.81296 14.297 12.9545L17.7221 16.3795C18.0926 16.7502 18.0926 17.3513 17.7221 17.722C17.3509 18.0927 16.7504 18.0927 16.3799 17.722L12.9547 14.2969C9.81307 16.7748 5.2438 16.5642 2.34457 13.6651C-0.781523 10.5392 -0.781523 5.4707 2.34457 2.34444ZM12.2552 3.75865C9.90893 1.41256 6.10523 1.41256 3.7584 3.75865C1.4126 6.10461 1.4126 9.90843 3.7584 12.2547C6.10523 14.6009 9.90893 14.6009 12.2552 12.2547C14.6008 9.90843 14.6008 6.10461 12.2552 3.75865Z" fill="#999999"/>
</g>
<defs>
<clipPath id="clip0_1838_1966">
<rect width="18" height="18" fill="white"/>
</clipPath>
</defs>
</svg>
