<svg width="24" height="25" viewBox="0 0 24 25" fill="none" xmlns="http://www.w3.org/2000/svg">
<path fill-rule="evenodd" clip-rule="evenodd" d="M13.2857 6.5H11C7.68629 6.5 5 9.18629 5 12.5C5 15.8137 7.68629 18.5 11 18.5H19V12.2143C19 9.05837 16.4416 6.5 13.2857 6.5ZM11 4.5C6.58172 4.5 3 8.08172 3 12.5C3 16.9183 6.58172 20.5 11 20.5H20.5C20.7761 20.5 21 20.2761 21 20V12.2143C21 7.9538 17.5462 4.5 13.2857 4.5H11Z" fill="#333333"/>
<path d="M9 11.5H7V13.5H9V11.5Z" fill="#333333"/>
<path d="M13 11.5H11V13.5H13V11.5Z" fill="#333333"/>
<path d="M17 11.5H15V13.5H17V11.5Z" fill="#333333"/>
</svg>
