<svg width="24" height="24" viewBox="0 0 24 24" fill="none" xmlns="http://www.w3.org/2000/svg">
<path d="M12.5 12.5C12.7761 12.5 13 12.2761 13 12V11.9425C13 11.39 13.0307 11.3593 13.5678 10.8836C13.6727 10.7916 13.773 10.7055 13.8684 10.6236C14.6809 9.92637 15.1452 9.52788 15.1452 8.31937C15.1452 6.61587 13.7179 5.25 11.8763 5.25C9.90534 5.25 8.99534 6.64464 8.66077 7.35125C8.55457 7.57554 8.66705 7.82852 8.89244 7.93237L9.55831 8.2392C9.82886 8.36386 10.1538 8.22609 10.3109 7.97304C10.5763 7.54577 11.0727 6.99954 11.8763 6.99954C12.6436 6.99954 13.3036 7.59807 13.3036 8.31937C13.3036 8.91023 13.1823 9.00764 12.8263 9.29349C12.7477 9.35659 12.6576 9.42889 12.5549 9.51769C12.4551 9.60371 12.3614 9.68327 12.2736 9.75781C11.4844 10.428 11.1737 10.6918 11.1737 11.5895V12C11.1737 12.2761 11.3976 12.5 11.6737 12.5H12.5Z" fill="#A4A4A4"/>
<path d="M12.1 15.45C12.7127 15.45 13.2 14.9627 13.2 14.35C13.2 13.7373 12.7127 13.25 12.1 13.25C11.4873 13.25 11 13.7373 11 14.35C11 14.9627 11.4873 15.45 12.1 15.45Z" fill="#A4A4A4"/>
<path fill-rule="evenodd" clip-rule="evenodd" d="M10.2 1.5C5.67125 1.5 2 5.17134 2 9.70013V10.9002C2 14.2521 3.6739 17.0036 6.62605 18.2387C6.63395 18.4498 6.61911 18.7297 6.56996 19.0743C6.48796 19.6493 6.33656 20.2407 6.21532 20.6588C5.95784 21.5468 6.60544 22.5 7.58959 22.5C8.42838 22.5 9.23827 22.2167 9.93774 21.8592C10.6451 21.4977 11.304 21.027 11.8581 20.5751C12.4151 20.1209 12.886 19.6693 13.2171 19.3324C13.3005 19.2476 13.3753 19.1696 13.4409 19.1003H14.4C19.0402 19.1003 22 15.3105 22 10.9002V9.70013C22 5.17134 18.3288 1.5 13.8 1.5H10.2ZM12.5414 17.1003L12.2426 17.4474L12.2381 17.4525L12.2178 17.4756C12.1989 17.4969 12.1697 17.5296 12.1309 17.5721C12.0533 17.6571 11.9377 17.7809 11.7906 17.9306C11.4953 18.2311 11.0793 18.6295 10.5941 19.0252C10.106 19.4232 9.56751 19.8024 9.02757 20.0783C8.79309 20.1982 8.56971 20.2927 8.35928 20.3616C8.43198 20.0472 8.50044 19.7037 8.54993 19.3567C8.64344 18.7011 8.70196 17.8342 8.43244 17.1387L8.26318 16.7019L7.81927 16.5523C5.41852 15.7435 4 13.688 4 10.9002V9.70013C4 6.27588 6.77585 3.5 10.2 3.5H13.8C17.2241 3.5 20 6.27588 20 9.70013V10.9002C20 14.4429 17.7127 17.1003 14.4 17.1003H12.5414Z" fill="#A4A4A4"/>
</svg>
