<svg width="24" height="24" viewBox="0 0 24 24" fill="none" xmlns="http://www.w3.org/2000/svg">
<path fill-rule="evenodd" clip-rule="evenodd" d="M5 12C5 8.13401 8.13401 5 12 5C15.866 5 19 8.13401 19 12C19 15.866 15.866 19 12 19C8.13401 19 5 15.866 5 12ZM12 3C7.02944 3 3 7.02944 3 12C3 16.9706 7.02944 21 12 21C16.9706 21 21 16.9706 21 12C21 7.02944 16.9706 3 12 3ZM10.8585 11.2214C10.8585 11.354 10.8058 11.4812 10.712 11.575L8.20414 14.0829C8.00888 14.2781 8.00888 14.5947 8.20414 14.79L9.06838 15.6542C9.26364 15.8495 9.58023 15.8495 9.77549 15.6542L12.9343 12.4954C13.028 12.4017 13.0807 12.2745 13.0807 12.1419V7.94431C13.0807 7.66817 12.8568 7.44431 12.5807 7.44431H11.3585C11.0823 7.44431 10.8585 7.66817 10.8585 7.94431V11.2214Z" fill="#333333"/>
</svg>
