<svg width="24" height="24" viewBox="0 0 24 24" fill="none" xmlns="http://www.w3.org/2000/svg">
<path fill-rule="evenodd" clip-rule="evenodd" d="M8.21136 20.5978C9.36616 21.2645 10.8344 21.0141 11.931 20.0886C12.2153 19.8486 12.1733 19.4211 11.8863 19.2554L7.53643 16.744C7.24941 16.5783 6.85818 16.7557 6.79254 17.1219C6.5394 18.5344 7.0567 19.9311 8.21136 20.5978Z" fill="white"/>
<path fill-rule="evenodd" clip-rule="evenodd" d="M14.559 3.0932C15.1452 2.85998 15.6968 3.10378 16.0499 3.30762C16.403 3.51148 16.8898 3.86727 16.981 4.49137C17.025 4.79264 16.9561 5.04428 16.8909 5.20976C16.8609 5.28584 16.8254 5.35823 16.7933 5.41877C18.5167 7.1516 19.1426 9.76863 17.9059 11.9107L17.0506 13.3922C16.6171 14.1429 16.5617 15.1033 16.9739 16.0509L16.9764 16.0566C17.2233 16.6341 17.2215 17.3037 16.89 17.8779C16.2571 18.9741 14.8763 19.1101 13.9241 18.5603L3.90356 12.7749C2.95141 12.2252 2.37888 10.9615 3.01172 9.86528C3.34132 9.2944 3.91808 8.95518 4.53791 8.88077L4.54404 8.88003C5.57982 8.76216 6.38325 8.23317 6.81618 7.48333L7.67153 6.00181C8.9082 3.85983 11.4871 3.09292 13.85 3.71936C13.8863 3.66133 13.9312 3.59448 13.9821 3.53055C14.0927 3.39137 14.2761 3.20577 14.559 3.0932ZM14.4521 6.07537L13.9167 5.85014C12.0672 5.07212 10.1771 5.66208 9.40358 7.00181L8.54823 8.48333C7.76756 9.83549 6.37351 10.6836 4.77456 10.8668C4.76617 10.8679 4.7592 10.8693 4.7535 10.8707C4.7543 10.8736 4.75527 10.8767 4.75643 10.8801C4.77152 10.9244 4.81484 10.9917 4.90356 11.0429L14.9241 16.8283C15.0129 16.8796 15.0929 16.8834 15.1388 16.8744C15.1421 16.8737 15.1451 16.873 15.1477 16.8724C15.1458 16.8649 15.1428 16.8557 15.1382 16.8448C14.5 15.3748 14.5383 13.7435 15.3185 12.3922L16.1739 10.9107C16.9473 9.57101 16.5127 7.6387 14.9147 6.42632L14.4521 6.07537Z" fill="white"/>
</svg>
