<svg width="24" height="24" viewBox="0 0 24 24" fill="none" xmlns="http://www.w3.org/2000/svg">
<path d="M18 8H6C4.89543 8 4 8.89543 4 10V18C4 19.1046 4.89543 20 6 20H18C19.1046 20 20 19.1046 20 18V10C20 8.89543 19.1046 8 18 8Z" stroke="#333333" stroke-width="2"/>
<path d="M6 6C6 5.44772 6.44772 5 7 5H15C15.5523 5 16 5.44772 16 6V8H6V6Z" stroke="#333333" stroke-width="2"/>
<path d="M10 5H8.5V8H10V5Z" fill="#333333"/>
<path d="M16.5 12H14.5C14.2239 12 14 12.2239 14 12.5V14.5C14 14.7761 14.2239 15 14.5 15H16.5C16.7761 15 17 14.7761 17 14.5V12.5C17 12.2239 16.7761 12 16.5 12Z" fill="#333333"/>
</svg>
