<svg width="24" height="24" viewBox="0 0 24 24" fill="none" xmlns="http://www.w3.org/2000/svg">
<path d="M18.1009 6.78881L18.8818 6.16411L18.8472 6.12086L18.808 6.0817L18.1009 6.78881ZM18.1009 6.78881L17.32 7.41351L17.3546 7.45676L17.3938 7.49592L18.1009 6.78881ZM3.73316 14.3234C3.92471 14.4507 4.11526 14.5113 4.26333 14.5476C4.39919 14.5809 4.55724 14.6066 4.69508 14.6296L5.02389 12.6568C4.94546 12.6437 4.88651 12.6339 4.83616 12.6247C4.78587 12.6156 4.75701 12.6094 4.73997 12.6052C4.70672 12.5971 4.76365 12.6068 4.84063 12.658L3.73316 14.3234ZM3.14393 13.6278C3.27079 13.9106 3.47507 14.1517 3.73316 14.3234L4.84063 12.658C4.89674 12.6953 4.94114 12.7477 4.96872 12.8092L3.14393 13.6278ZM3.00001 12.6286C3.00001 12.7684 2.99935 12.9285 3.0099 13.068C3.02139 13.22 3.04977 13.4179 3.14393 13.6278L4.96872 12.8092C5.00656 12.8935 5.00678 12.9513 5.0042 12.9171C5.00288 12.8996 5.00153 12.8702 5.00078 12.8191C5.00003 12.7679 5.00001 12.7081 5.00001 12.6286H3.00001ZM3.00001 11.3713V12.6286H5.00001V11.3713H3.00001ZM3.14393 10.3721C3.04977 10.582 3.02139 10.7799 3.0099 10.9319C2.99935 11.0714 3.00001 11.2315 3.00001 11.3713H5.00001C5.00001 11.2918 5.00003 11.232 5.00078 11.1808C5.00153 11.1297 5.00288 11.1002 5.0042 11.0827C5.00678 11.0486 5.00656 11.1064 4.96872 11.1907L3.14393 10.3721ZM3.73316 9.67654C3.47507 9.84817 3.27079 10.0893 3.14393 10.3721L4.96872 11.1907C4.94114 11.2522 4.89674 11.3046 4.84063 11.3419L3.73316 9.67654ZM4.69509 9.37031C4.55724 9.39329 4.39919 9.41896 4.26333 9.4523C4.11526 9.48863 3.92471 9.54916 3.73316 9.67654L4.84063 11.3419C4.76365 11.3931 4.70672 11.4028 4.73997 11.3947C4.75701 11.3905 4.78587 11.3843 4.83616 11.3752C4.88651 11.366 4.94545 11.3562 5.02388 11.3431L4.69509 9.37031ZM4.50955 7.79693C4.55492 8.02245 4.64686 8.19998 4.72587 8.33038C4.79836 8.45002 4.89197 8.57993 4.9732 8.69364L6.60066 7.53117C6.55445 7.46647 6.51973 7.41782 6.4906 7.37575C6.4615 7.33373 6.44546 7.30895 6.43637 7.29394C6.41863 7.26467 6.45201 7.31178 6.47025 7.40242L4.50955 7.79693ZM4.58473 6.88844C4.47448 7.17811 4.44841 7.49306 4.50955 7.79693L6.47025 7.40242C6.48354 7.46848 6.47787 7.53695 6.45391 7.59991L4.58473 6.88844ZM5.18949 6.08015C5.09068 6.17896 4.97699 6.29171 4.88581 6.39781C4.78644 6.51344 4.66657 6.67344 4.58473 6.88844L6.45391 7.59991C6.42102 7.68632 6.38034 7.72731 6.40265 7.70135C6.41409 7.68804 6.43398 7.66623 6.46959 7.62957C6.50524 7.59285 6.54749 7.55058 6.60371 7.49436L5.18949 6.08015ZM6.07857 5.19107L5.18949 6.08015L6.60371 7.49436L7.49278 6.60529L6.07857 5.19107ZM6.88687 4.58631C6.67187 4.66814 6.51187 4.78802 6.39623 4.88739C6.29014 4.97857 6.17738 5.09226 6.07857 5.19107L7.49278 6.60529C7.549 6.54906 7.59128 6.50682 7.62799 6.47117C7.66466 6.43556 7.68646 6.41566 7.69977 6.40423C7.72573 6.38192 7.68474 6.4226 7.59833 6.45548L6.88687 4.58631ZM7.79535 4.51112C7.49149 4.44998 7.17654 4.47605 6.88687 4.58631L7.59833 6.45548C7.53536 6.47945 7.4669 6.48512 7.40084 6.47183L7.79535 4.51112ZM8.69207 4.97477C8.57835 4.89355 8.44844 4.79994 8.3288 4.72745C8.19841 4.64844 8.02087 4.5565 7.79535 4.51112L7.40084 6.47183C7.31021 6.45359 7.26309 6.4202 7.29237 6.43794C7.30737 6.44704 7.33215 6.46308 7.37417 6.49217C7.41625 6.52131 7.46489 6.55602 7.52959 6.60224L8.69207 4.97477ZM9.67614 3.73316C9.54876 3.92471 9.48823 4.11526 9.45189 4.26333C9.41855 4.39919 9.39288 4.55724 9.36991 4.69509L11.3427 5.02388C11.3558 4.94545 11.3656 4.88651 11.3748 4.83616C11.3839 4.78587 11.3901 4.75701 11.3943 4.73997C11.4024 4.70672 11.3927 4.76364 11.3415 4.84063L9.67614 3.73316ZM10.3717 3.14393C10.0889 3.27079 9.84777 3.47507 9.67614 3.73316L11.3415 4.84063C11.3042 4.89674 11.2518 4.94114 11.1903 4.96872L10.3717 3.14393ZM11.3709 3.00001C11.2311 3.00001 11.071 2.99935 10.9315 3.0099C10.7795 3.02139 10.5816 3.04977 10.3717 3.14393L11.1903 4.96872C11.1059 5.00656 11.0482 5.00678 11.0823 5.0042C11.0998 5.00288 11.1293 5.00153 11.1804 5.00078C11.2316 5.00003 11.2914 5.00001 11.3709 5.00001V3.00001ZM12.6282 3.00001H11.3709V5.00001H12.6282V3.00001ZM13.6274 3.14393C13.4175 3.04977 13.2196 3.02139 13.0676 3.0099C12.9281 2.99935 12.768 3.00001 12.6282 3.00001V5.00001C12.7077 5.00001 12.7675 5.00003 12.8187 5.00078C12.8698 5.00153 12.8992 5.00288 12.9167 5.0042C12.9509 5.00678 12.8931 5.00656 12.8088 4.96872L13.6274 3.14393ZM14.323 3.73316C14.1513 3.47507 13.9102 3.27079 13.6274 3.14393L12.8088 4.96872C12.7473 4.94115 12.6949 4.89674 12.6576 4.84063L14.323 3.73316ZM14.6292 4.69509C14.6062 4.55724 14.5805 4.39919 14.5472 4.26333C14.5109 4.11526 14.4503 3.92471 14.323 3.73316L12.6576 4.84063C12.6064 4.76364 12.5967 4.70672 12.6048 4.73997C12.609 4.75701 12.6152 4.78587 12.6243 4.83616C12.6335 4.88651 12.6433 4.94545 12.6564 5.02388L14.6292 4.69509ZM16.2022 4.51268C15.9766 4.55805 15.7991 4.64999 15.6687 4.729C15.5491 4.8015 15.4192 4.8951 15.3054 4.97633L16.4679 6.6038C16.5326 6.55758 16.5813 6.52286 16.6233 6.49373C16.6654 6.46464 16.6901 6.44859 16.7051 6.4395C16.7344 6.42176 16.6873 6.45515 16.5967 6.47338L16.2022 4.51268ZM17.1107 4.58787C16.821 4.47761 16.506 4.45154 16.2022 4.51268L16.5967 6.47338C16.5306 6.48667 16.4621 6.48101 16.3992 6.45704L17.1107 4.58787ZM17.9189 5.19263C17.8201 5.09381 17.7074 4.98012 17.6013 4.88895C17.4857 4.78958 17.3256 4.6697 17.1107 4.58787L16.3992 6.45704C16.3128 6.42415 16.2718 6.38347 16.2977 6.40578C16.3111 6.41722 16.3329 6.43712 16.3695 6.47272C16.4062 6.50838 16.4485 6.55062 16.5047 6.60684L17.9189 5.19263ZM18.808 6.0817L17.9189 5.19263L16.5047 6.60684L17.3938 7.49592L18.808 6.0817ZM19.4128 6.89C19.3309 6.675 19.2111 6.515 19.1117 6.39937C19.0205 6.29327 18.9068 6.18051 18.808 6.0817L17.3938 7.49592C17.45 7.55214 17.4923 7.59442 17.5279 7.63113C17.5635 7.6678 17.5834 7.6896 17.5949 7.70291C17.6172 7.72887 17.5765 7.68788 17.5436 7.60147L19.4128 6.89ZM19.488 7.79849C19.5491 7.49463 19.523 7.17967 19.4128 6.89L17.5436 7.60147C17.5196 7.5385 17.514 7.47003 17.5273 7.40397L19.488 7.79849ZM19.0243 8.6952C19.1055 8.58149 19.1992 8.45158 19.2716 8.33193C19.3507 8.20154 19.4426 8.024 19.488 7.79849L17.5273 7.40397C17.5455 7.31334 17.5789 7.26622 17.5611 7.2955C17.5521 7.31051 17.536 7.33528 17.5069 7.3773C17.4778 7.41938 17.4431 7.46802 17.3969 7.53272L19.0243 8.6952ZM20.2669 9.67654C20.0754 9.54916 19.8848 9.48863 19.7367 9.4523C19.6008 9.41896 19.4428 9.39329 19.3049 9.37031L18.9761 11.3431C19.0546 11.3562 19.1135 11.366 19.1639 11.3752C19.2141 11.3843 19.243 11.3905 19.26 11.3947C19.2933 11.4028 19.2364 11.3931 19.1594 11.3419L20.2669 9.67654ZM20.8561 10.3721C20.7292 10.0893 20.5249 9.84817 20.2669 9.67654L19.1594 11.3419C19.1033 11.3046 19.0589 11.2522 19.0313 11.1907L20.8561 10.3721ZM21 11.3713C21 11.2315 21.0007 11.0714 20.9901 10.9319C20.9786 10.7799 20.9502 10.582 20.8561 10.3721L19.0313 11.1907C18.9934 11.1064 18.9932 11.0486 18.9958 11.0827C18.9971 11.1002 18.9985 11.1297 18.9992 11.1808C19 11.232 19 11.2918 19 11.3713H21ZM21 12.6286V11.3713H19V12.6286H21ZM20.8561 13.6278C20.9502 13.4179 20.9786 13.22 20.9901 13.068C21.0007 12.9285 21 12.7684 21 12.6286H19C19 12.7081 19 12.7679 18.9992 12.8191C18.9985 12.8702 18.9971 12.8996 18.9958 12.9171C18.9932 12.9513 18.9934 12.8935 19.0313 12.8092L20.8561 13.6278ZM20.2668 14.3234C20.5249 14.1517 20.7292 13.9106 20.8561 13.6278L19.0313 12.8092C19.0589 12.7477 19.1033 12.6953 19.1594 12.658L20.2668 14.3234ZM19.3049 14.6296C19.4428 14.6066 19.6008 14.5809 19.7367 14.5476C19.8848 14.5113 20.0753 14.4507 20.2668 14.3234L19.1594 12.658C19.2364 12.6068 19.2933 12.5971 19.26 12.6052C19.243 12.6094 19.2141 12.6156 19.1639 12.6247C19.1135 12.6339 19.0546 12.6437 18.9761 12.6568L19.3049 14.6296ZM19.487 16.2024C19.4417 15.9768 19.3497 15.7993 19.2707 15.6689C19.1982 15.5493 19.1046 15.4194 19.0234 15.3056L17.3959 16.4681C17.4421 16.5328 17.4769 16.5815 17.506 16.6235C17.5351 16.6656 17.5511 16.6903 17.5602 16.7053C17.578 16.7346 17.5446 16.6875 17.5263 16.5969L19.487 16.2024ZM19.4119 17.1108C19.5221 16.8212 19.5482 16.5062 19.487 16.2024L17.5263 16.5969C17.5131 16.5308 17.5187 16.4623 17.5427 16.3994L19.4119 17.1108ZM18.8071 17.9191C18.9059 17.8203 19.0196 17.7076 19.1108 17.6015C19.2102 17.4858 19.33 17.3258 19.4119 17.1108L17.5427 16.3994C17.5756 16.313 17.6163 16.272 17.5939 16.2979C17.5825 16.3112 17.5626 16.3331 17.527 16.3697C17.4913 16.4064 17.4491 16.4487 17.3929 16.5049L18.8071 17.9191ZM17.918 18.8082L18.8071 17.9191L17.3929 16.5049L16.5038 17.394L17.918 18.8082ZM17.1097 19.413C17.3247 19.3311 17.4847 19.2113 17.6004 19.1119C17.7065 19.0207 17.8192 18.907 17.918 18.8082L16.5038 17.394C16.4476 17.4502 16.4053 17.4925 16.3686 17.5281C16.3319 17.5637 16.3101 17.5836 16.2968 17.5951C16.2709 17.6174 16.3118 17.5767 16.3983 17.5438L17.1097 19.413ZM16.2012 19.4882C16.5051 19.5493 16.8201 19.5232 17.1097 19.413L16.3983 17.5438C16.4612 17.5198 16.5297 17.5142 16.5958 17.5275L16.2012 19.4882ZM15.3045 19.0245C15.4182 19.1057 15.5482 19.1993 15.6678 19.2718C15.7982 19.3509 15.9757 19.4428 16.2012 19.4882L16.5958 17.5275C16.6865 17.5457 16.7335 17.5791 16.7042 17.5613C16.6892 17.5523 16.6644 17.5362 16.6224 17.5071C16.5803 17.478 16.5317 17.4433 16.467 17.397L15.3045 19.0245ZM14.323 20.2669C14.4503 20.0754 14.5109 19.8848 14.5472 19.7367C14.5805 19.6008 14.6062 19.4428 14.6292 19.3049L12.6564 18.9761C12.6433 19.0546 12.6335 19.1135 12.6243 19.1639C12.6152 19.2141 12.609 19.243 12.6048 19.26C12.5967 19.2933 12.6064 19.2364 12.6576 19.1594L14.323 20.2669ZM13.6274 20.8561C13.9102 20.7292 14.1513 20.5249 14.323 20.2669L12.6576 19.1594C12.6949 19.1033 12.7473 19.0589 12.8088 19.0313L13.6274 20.8561ZM12.6282 21C12.768 21 12.9281 21.0007 13.0676 20.9901C13.2196 20.9786 13.4175 20.9502 13.6274 20.8561L12.8088 19.0313C12.8931 18.9934 12.9509 18.9932 12.9167 18.9958C12.8992 18.9971 12.8698 18.9985 12.8187 18.9992C12.7675 19 12.7077 19 12.6282 19V21ZM11.3709 21H12.6282V19H11.3709V21ZM10.3717 20.8561C10.5816 20.9502 10.7795 20.9786 10.9315 20.9901C11.071 21.0007 11.2311 21 11.3709 21V19C11.2914 19 11.2316 19 11.1804 18.9992C11.1293 18.9985 11.0998 18.9971 11.0823 18.9958C11.0482 18.9932 11.106 18.9934 11.1903 19.0313L10.3717 20.8561ZM9.67614 20.2668C9.84777 20.5248 10.0889 20.7292 10.3717 20.8561L11.1903 19.0313C11.2518 19.0589 11.3042 19.1033 11.3415 19.1594L9.67614 20.2668ZM9.36991 19.3049C9.39288 19.4428 9.41855 19.6008 9.45189 19.7367C9.48823 19.8848 9.54876 20.0753 9.67614 20.2668L11.3415 19.1594C11.3927 19.2364 11.4024 19.2933 11.3943 19.26C11.3901 19.243 11.3839 19.2141 11.3748 19.1639C11.3656 19.1135 11.3558 19.0546 11.3427 18.9761L9.36991 19.3049ZM7.53143 17.3986C7.46673 17.4448 7.41809 17.4795 7.37601 17.5087C7.33399 17.5378 7.30921 17.5538 7.29421 17.5629C7.26493 17.5806 7.31205 17.5473 7.40268 17.529L7.79719 19.4897C8.02271 19.4443 8.20025 19.3524 8.33064 19.2734C8.45028 19.2009 8.58019 19.1073 8.69391 19.0261L7.53143 17.3986ZM7.40268 17.529C7.46874 17.5157 7.5372 17.5214 7.60018 17.5454L6.8887 19.4145C7.17838 19.5248 7.49333 19.5509 7.79719 19.4897L7.40268 17.529ZM7.60018 17.5454C7.68659 17.5783 7.72757 17.6189 7.70161 17.5966C7.6883 17.5852 7.6665 17.5653 7.62983 17.5297C7.59312 17.494 7.55084 17.4518 7.49462 17.3956L6.08041 18.8098C6.17922 18.9086 6.29198 19.0223 6.39807 19.1135C6.5137 19.2128 6.67371 19.3327 6.8887 19.4145L7.60018 17.5454ZM7.49462 17.3956L6.60555 16.5065L5.19133 17.9207L6.08041 18.8098L7.49462 17.3956ZM6.60555 16.5065C6.54933 16.4503 6.50709 16.408 6.47143 16.3713C6.43582 16.3346 6.41593 16.3128 6.40449 16.2995C6.38218 16.2735 6.42286 16.3145 6.45574 16.4009L4.58657 17.1124C4.66841 17.3274 4.78828 17.4874 4.88765 17.603C4.97883 17.7091 5.09252 17.8219 5.19133 17.9207L6.60555 16.5065ZM6.45574 16.4009C6.47972 16.4639 6.48538 16.5324 6.47209 16.5984L4.51139 16.2039C4.45025 16.5078 4.47631 16.8227 4.58657 17.1124L6.45574 16.4009ZM6.47209 16.5984C6.45385 16.6891 6.42047 16.7362 6.43821 16.7069C6.4473 16.6919 6.46334 16.6671 6.49244 16.6251C6.52157 16.583 6.55629 16.5344 6.6025 16.4697L4.97504 15.3072C4.89381 15.4209 4.8002 15.5508 4.72771 15.6705C4.6487 15.8009 4.55676 15.9784 4.51139 16.2039L6.47209 16.5984ZM16.467 17.397C16.3281 17.2979 16.1851 17.1935 16.0572 17.1226L15.0878 18.872C15.0772 18.8661 15.0825 18.8681 15.124 18.8967C15.1647 18.9247 15.2186 18.9632 15.3045 19.0245L16.467 17.397ZM14.6292 19.3049C14.6466 19.2005 14.6575 19.135 14.6665 19.0863C14.6757 19.0366 14.6781 19.0314 14.6747 19.0431L12.7523 18.4916C12.7119 18.6321 12.6845 18.8074 12.6564 18.9761L14.6292 19.3049ZM16.0572 17.1226C14.7716 16.4103 13.1576 17.0788 12.7523 18.4916L14.6747 19.0431C14.7254 18.8665 14.9271 18.783 15.0878 18.872L16.0572 17.1226ZM12.6564 5.02388C12.6847 5.19351 12.7122 5.36961 12.7527 5.5107L14.675 4.95833C14.6783 4.97014 14.676 4.96493 14.6667 4.91486C14.6577 4.86591 14.6467 4.8 14.6292 4.69509L12.6564 5.02388ZM15.3054 4.97633C15.2192 5.03792 15.1651 5.07653 15.1243 5.10462C15.0826 5.1333 15.0773 5.13529 15.0879 5.12939L16.0566 6.87918C16.185 6.8081 16.3285 6.70335 16.4679 6.6038L15.3054 4.97633ZM12.7527 5.5107C13.1584 6.92249 14.7714 7.5906 16.0566 6.87918L15.0879 5.12939C14.9273 5.21832 14.7257 5.1348 14.675 4.95833L12.7527 5.5107ZM18.9761 12.6568C18.8065 12.6851 18.6304 12.7126 18.4895 12.7531L19.0416 14.6754C19.0298 14.6788 19.035 14.6764 19.0851 14.6671C19.1341 14.6581 19.2 14.6471 19.3049 14.6296L18.9761 12.6568ZM19.0234 15.3056C18.9619 15.2195 18.9233 15.1655 18.8953 15.1247C18.8666 15.0831 18.8646 15.0777 18.8705 15.0884L17.1209 16.0573C17.1919 16.1855 17.2965 16.3289 17.3959 16.4681L19.0234 15.3056ZM18.4895 12.7531C17.0774 13.1587 16.4091 14.772 17.1209 16.0573L18.8705 15.0884C18.7816 14.9277 18.8651 14.7261 19.0416 14.6754L18.4895 12.7531ZM4.69508 14.6296C4.80001 14.6471 4.86585 14.6581 4.91476 14.6671C4.96471 14.6763 4.96992 14.6787 4.95816 14.6753L5.5114 12.7534C5.3698 12.7126 5.19351 12.6851 5.02389 12.6568L4.69508 14.6296ZM6.6025 16.4697C6.70271 16.3294 6.80808 16.185 6.87939 16.056L5.12916 15.0882C5.13511 15.0774 5.13311 15.0828 5.1042 15.1248C5.07591 15.1659 5.03702 15.2204 4.97504 15.3072L6.6025 16.4697ZM4.95816 14.6753C5.13451 14.7261 5.21796 14.9276 5.12916 15.0882L6.87939 16.056C7.58981 14.7713 6.92219 13.1595 5.5114 12.7534L4.95816 14.6753ZM9.87746 9.87746C9.70373 10.0512 9.50715 10.2401 9.35955 10.4711L11.0449 11.5479C11.0405 11.5548 11.0437 11.547 11.0811 11.5063C11.1242 11.4594 11.1837 11.3996 11.2917 11.2917L9.87746 9.87746ZM11 11.9991C11 11.8453 11.0002 11.7601 11.0029 11.6958C11.0052 11.6396 11.0086 11.6317 11.0067 11.6402L9.05356 11.2098C8.99453 11.4777 9.00001 11.7518 9.00001 11.9991H11ZM9.35955 10.4711C9.21494 10.6974 9.11136 10.9475 9.05356 11.2098L11.0067 11.6402C11.0139 11.6074 11.0269 11.5761 11.0449 11.5479L9.35955 10.4711ZM5.02388 11.3431C5.19185 11.3151 5.36643 11.2878 5.50669 11.2476L4.9556 9.32501C4.96725 9.32167 4.96209 9.32402 4.91263 9.33315C4.86419 9.34209 4.799 9.35299 4.69509 9.37031L5.02388 11.3431ZM4.9732 8.69364C5.03488 8.78 5.07365 8.83433 5.10184 8.87528C5.13073 8.91724 5.13272 8.92258 5.12676 8.91182L6.8759 7.94203C6.80513 7.81438 6.70041 7.67081 6.60066 7.53117L4.9732 8.69364ZM5.50669 11.2476C6.91996 10.8425 7.58878 9.22781 6.8759 7.94203L5.12676 8.91182C5.21587 9.07254 5.13226 9.27438 4.9556 9.32501L5.50669 11.2476ZM11.9969 9.00001C11.7507 9.00001 11.4776 8.99455 11.2098 9.05356L11.6402 11.0067C11.632 11.0085 11.6399 11.0052 11.6954 11.0029C11.7592 11.0002 11.8438 11 11.9969 11V9.00001ZM11.2917 11.2917C11.3996 11.1837 11.4594 11.1242 11.5063 11.0811C11.547 11.0437 11.5548 11.0405 11.5479 11.0449L10.4711 9.35955C10.2401 9.50715 10.0512 9.70373 9.87746 9.87746L11.2917 11.2917ZM11.2098 9.05356C10.9475 9.11136 10.6974 9.21494 10.4711 9.35955L11.5479 11.0449C11.5761 11.0269 11.6074 11.0139 11.6402 11.0067L11.2098 9.05356ZM15 12C15 11.7542 15.0055 11.4815 14.9464 11.2137L12.9933 11.6442C12.9915 11.6362 12.9948 11.644 12.9971 11.6993C12.9998 11.7629 13 11.8472 13 12H15ZM12.707 11.2944C12.8155 11.4028 12.8753 11.463 12.9186 11.5101C12.9564 11.5512 12.9596 11.5591 12.9551 11.5519L14.6406 10.4753C14.4929 10.2441 14.2957 10.0546 14.1213 9.88022L12.707 11.2944ZM14.9464 11.2137C14.8886 10.9515 14.7851 10.7016 14.6406 10.4753L12.9551 11.5519C12.9731 11.5802 12.9861 11.6115 12.9933 11.6442L14.9464 11.2137ZM7.52959 6.60224C7.67 6.70253 7.8145 6.80795 7.94342 6.87925L8.91132 5.12906C8.92211 5.13503 8.91673 5.13303 8.87464 5.10406C8.83349 5.07575 8.77892 5.03681 8.69207 4.97477L7.52959 6.60224ZM9.36991 4.69509C9.35243 4.79998 9.34142 4.86579 9.33239 4.91468C9.32317 4.96461 9.32078 4.96981 9.32417 4.95806L11.2461 5.51121C11.2869 5.36966 11.3144 5.19344 11.3427 5.02388L9.36991 4.69509ZM7.94342 6.87925C9.22819 7.58977 10.8401 6.9221 11.2461 5.51121L9.32417 4.95806C9.27341 5.13442 9.07192 5.21788 8.91132 5.12906L7.94342 6.87925ZM11.3427 18.9761C11.3147 18.808 11.2873 18.6332 11.2471 18.4928L9.32456 19.0441C9.32122 19.0325 9.32357 19.0376 9.33271 19.0872C9.34166 19.1356 9.35257 19.2009 9.36991 19.3049L11.3427 18.9761ZM8.69391 19.0261C8.78006 18.9645 8.8342 18.9259 8.87502 18.8978C8.91677 18.8691 8.9221 18.8671 8.91141 18.873L7.94183 17.1237C7.81405 17.1946 7.67072 17.2991 7.53143 17.3986L8.69391 19.0261ZM11.2471 18.4928C10.8419 17.0798 9.22749 16.4111 7.94183 17.1237L8.91141 18.873C9.07211 18.7839 9.27391 18.8675 9.32456 19.0441L11.2471 18.4928ZM14.1213 9.88022C13.9456 9.7046 13.7548 9.50595 13.5218 9.35758L12.4477 11.0447C12.4405 11.0401 12.4485 11.0434 12.4898 11.0814C12.5373 11.125 12.5979 11.1852 12.707 11.2944L14.1213 9.88022ZM11.9969 11C12.1511 11 12.2363 11.0002 12.3006 11.0029C12.3565 11.0053 12.3644 11.0086 12.3562 11.0068L12.7897 9.05435C12.52 8.99447 12.2449 9.00001 11.9969 9.00001V11ZM13.5218 9.35758C13.2973 9.21465 13.0495 9.11203 12.7897 9.05435L12.3562 11.0068C12.3887 11.014 12.4196 11.0268 12.4477 11.0447L13.5218 9.35758ZM14.121 14.1199C14.2955 13.9454 14.4929 13.7558 14.6406 13.5246L12.9551 12.448C12.9596 12.4408 12.9564 12.4487 12.9186 12.4898C12.8752 12.5371 12.8153 12.5972 12.7068 12.7057L14.121 14.1199ZM13 12C13 12.1527 12.9998 12.237 12.9971 12.3007C12.9948 12.3559 12.9915 12.3638 12.9933 12.3557L14.9464 12.7862C15.0055 12.5184 15 12.2457 15 12H13ZM14.6406 13.5246C14.7851 13.2984 14.8886 13.0484 14.9464 12.7862L12.9933 12.3557C12.9861 12.3885 12.9731 12.4197 12.9551 12.448L14.6406 13.5246ZM11.998 15C12.2453 15 12.5195 15.0055 12.7887 14.9459L12.356 12.9932C12.3642 12.9914 12.3563 12.9947 12.3006 12.9971C12.2366 12.9998 12.1517 13 11.998 13V15ZM12.7068 12.7057C12.5978 12.8148 12.5373 12.875 12.4898 12.9186C12.4485 12.9566 12.4405 12.9598 12.4477 12.9552L13.5225 14.6419C13.755 14.4937 13.9456 14.2954 14.121 14.1199L12.7068 12.7057ZM12.7887 14.9459C13.0492 14.8881 13.2975 14.7853 13.5225 14.6419L12.4477 12.9552C12.4196 12.9732 12.3886 12.986 12.356 12.9932L12.7887 14.9459ZM9.87796 14.122C10.0521 14.2962 10.2414 14.4933 10.4731 14.6411L11.549 12.9551C11.556 12.9596 11.5481 12.9563 11.5073 12.9189C11.4603 12.8757 11.4004 12.8161 11.2922 12.7078L9.87796 14.122ZM11.998 13C11.8448 13 11.7601 12.9998 11.6963 12.9971C11.6408 12.9948 11.6329 12.9915 11.6411 12.9933L11.2097 14.9462C11.478 15.0055 11.7515 15 11.998 15V13ZM10.4731 14.6411C10.6989 14.7852 10.9482 14.8884 11.2097 14.9462L11.6411 12.9933C11.6084 12.9861 11.5772 12.9731 11.549 12.9551L10.4731 14.6411ZM17.3969 7.53272C17.2978 7.67141 17.1936 7.81429 17.1228 7.94202L18.872 8.91164C18.8661 8.92224 18.8681 8.91693 18.8967 8.87546C18.9246 8.83485 18.963 8.781 19.0243 8.6952L17.3969 7.53272ZM19.3049 9.37031C19.2006 9.35292 19.135 9.34196 19.0864 9.33298C19.0366 9.32379 19.0314 9.32143 19.0431 9.3248L18.4919 11.2473C18.6323 11.2876 18.8074 11.315 18.9761 11.3431L19.3049 9.37031ZM17.1228 7.94202C16.4101 9.22771 17.0788 10.8421 18.4919 11.2473L19.0431 9.3248C18.8665 9.27415 18.7829 9.07235 18.872 8.91164L17.1228 7.94202ZM11.2922 12.7078C11.1839 12.5996 11.1243 12.5397 11.0811 12.4927C11.0437 12.4519 11.0404 12.444 11.0449 12.451L9.3589 13.5269C9.50675 13.7586 9.70381 13.9479 9.87796 14.122L11.2922 12.7078ZM9.00001 11.9991C9.00001 12.2471 8.99451 12.5218 9.05382 12.7903L11.0067 12.3589C11.0086 12.3674 11.0053 12.3595 11.0029 12.3032C11.0002 12.2388 11 12.1533 11 11.9991H9.00001ZM11.0449 12.451C11.0269 12.4228 11.0139 12.3916 11.0067 12.3589L9.05382 12.7903C9.11158 13.0518 9.21485 13.3011 9.3589 13.5269L11.0449 12.451Z" fill="#333333"/>
<path d="M12.0008 14.4294C13.342 14.4294 14.4293 13.3421 14.4293 12.0008C14.4293 10.6596 13.342 9.57227 12.0008 9.57227C10.6595 9.57227 9.5722 10.6596 9.5722 12.0008C9.5722 13.3421 10.6595 14.4294 12.0008 14.4294Z" stroke="#333333" stroke-width="2"/>
</svg>
