<svg width="24" height="24" viewBox="0 0 24 24" fill="none" xmlns="http://www.w3.org/2000/svg">
<path fill-rule="evenodd" clip-rule="evenodd" d="M3 12C3 7.02941 7.02952 3 11.9999 3C16.9705 3 21 7.02941 21 12C21 16.9705 16.9705 21 11.9999 21C7.02952 21 3 16.9705 3 12ZM4.24777 11.2538C4.37209 9.94698 4.81929 8.73417 5.50875 7.69633C6.30796 7.83352 7.13335 7.94771 7.98061 8.03719C7.73697 9.02027 7.58465 10.1101 7.5382 11.2538H4.24777ZM8.33604 6.85477C7.66844 6.78828 7.01564 6.70608 6.37991 6.6092C7.2513 5.70115 8.34059 5.00372 9.56355 4.60115C9.17168 5.06827 8.84631 5.63125 8.58081 6.23817C8.49452 6.4357 8.41277 6.64142 8.33604 6.85477ZM8.75181 11.2538C8.80077 10.1256 8.9597 9.07127 9.20379 8.14774C10.2639 8.22777 11.3541 8.26944 12.4662 8.26944C13.2602 8.26944 14.043 8.24826 14.8115 8.20694C15.0469 9.11624 15.1999 10.1496 15.248 11.2538H8.75181ZM12.4662 7.05696C13.1295 7.05696 13.7839 7.04171 14.4276 7.01211C13.8301 5.49372 12.9637 4.53888 11.9999 4.53888C11.047 4.53888 10.1897 5.47186 9.59292 6.96008C10.5274 7.02372 11.4869 7.05696 12.4662 7.05696ZM16.4616 11.2538C16.4165 10.1434 16.2715 9.08356 16.0401 8.12303C16.4491 8.0891 16.8534 8.04949 17.2526 8.00429C17.7011 7.9534 18.1436 7.89568 18.5789 7.83124C19.2187 8.83868 19.6334 10.0032 19.7522 11.2538H16.4616ZM15.692 6.93458C16.3862 6.88118 17.0659 6.81094 17.7289 6.7251C16.8402 5.76035 15.7109 5.02068 14.4362 4.60115C14.8281 5.06827 15.1532 5.63125 15.4187 6.23817C15.516 6.46017 15.607 6.69265 15.692 6.93458ZM6.37604 17.3869C7.24788 18.2969 8.33877 18.9958 9.56355 19.3988C9.17168 18.9317 8.84631 18.3686 8.58081 17.7617C8.49383 17.5629 8.41164 17.3557 8.33445 17.1409C7.66616 17.2075 7.01245 17.2899 6.37604 17.3869ZM5.50602 16.2997C4.76919 15.189 4.30948 13.8781 4.22614 12.4663H7.52909C7.56051 13.7102 7.71694 14.8966 7.9797 15.9585C7.13176 16.048 6.30568 16.1624 5.50602 16.2997ZM9.5911 17.0356C10.1879 18.5263 11.0461 19.4611 11.9999 19.4611C12.9646 19.4611 13.8317 18.5045 14.4292 16.9836C13.785 16.9539 13.1302 16.9386 12.4662 16.9386C11.4862 16.9386 10.526 16.9718 9.5911 17.0356ZM14.8124 15.7887C14.0435 15.7474 13.2606 15.7261 12.4662 15.7261C11.3537 15.7261 10.2633 15.7679 9.20265 15.8479C8.93921 14.8494 8.77526 13.6983 8.74202 12.4663H15.2578C15.2252 13.674 15.0667 14.804 14.8124 15.7887ZM15.6933 17.0611C15.6079 17.3045 15.5164 17.5385 15.4187 17.7617C15.1532 18.3688 14.8279 18.9317 14.436 19.3988C15.7125 18.9787 16.8432 18.2376 17.7326 17.2709C17.0688 17.1849 16.3883 17.1145 15.6933 17.0611ZM18.5814 16.1647C17.7583 16.0427 16.9101 15.9448 16.041 15.8726C16.291 14.8329 16.4402 13.6767 16.4707 12.4663H19.7739C19.6937 13.8214 19.2672 15.0833 18.5814 16.1647Z" fill="#CCCCCC" stroke="#CCCCCC" stroke-width="0.4"/>
</svg>
