<svg width="24" height="24" viewBox="0 0 24 24" fill="none" xmlns="http://www.w3.org/2000/svg">
<path d="M4 6C4 4.89543 4.89543 4 6 4H18C19.1046 4 20 4.89543 20 6V11C20 12.1046 19.1046 13 18 13H6C4.89543 13 4 12.1046 4 11V6Z" stroke="#333333" stroke-width="2"/>
<path d="M7 8.18421L8.70184 9.83231C8.79848 9.9259 8.95184 9.92623 9.04889 9.83307L12 7" stroke="#333333" stroke-width="2" stroke-linecap="round"/>
<path d="M5.5 16H4.5C4.22386 16 4 16.2239 4 16.5V17.5C4 17.7761 4.22386 18 4.5 18H5.5C5.77614 18 6 17.7761 6 17.5V16.5C6 16.2239 5.77614 16 5.5 16Z" fill="#333333"/>
<path d="M19.5 16H7.5C7.22386 16 7 16.2239 7 16.5V17.5C7 17.7761 7.22386 18 7.5 18H19.5C19.7761 18 20 17.7761 20 17.5V16.5C20 16.2239 19.7761 16 19.5 16Z" fill="#333333"/>
<path d="M19.5 19H7.5C7.22386 19 7 19.2239 7 19.5V20.5C7 20.7761 7.22386 21 7.5 21H19.5C19.7761 21 20 20.7761 20 20.5V19.5C20 19.2239 19.7761 19 19.5 19Z" fill="#333333"/>
<path d="M5.5 19H4.5C4.22386 19 4 19.2239 4 19.5V20.5C4 20.7761 4.22386 21 4.5 21H5.5C5.77614 21 6 20.7761 6 20.5V19.5C6 19.2239 5.77614 19 5.5 19Z" fill="#333333"/>
</svg>
