<svg width="24" height="20" viewBox="0 0 24 20" fill="none" xmlns="http://www.w3.org/2000/svg">
<g clip-path="url(#clip0_1838_1770)">
<path fill-rule="evenodd" clip-rule="evenodd" d="M5.49419 8.94686L7.03086 8.52921L7.24327 6.95102C7.55861 4.60806 9.57017 2.80039 12 2.80039C14.0166 2.80039 15.7484 4.04483 16.4584 5.81659L16.8864 6.88506L17.9876 7.22009C20.081 7.85699 21.6 9.80443 21.6 12.1004C21.6 14.917 19.3166 17.2004 16.5 17.2004H14.4H8.4H6.6C4.2804 17.2004 2.4 15.32 2.4 13.0004C2.4 11.0664 3.70936 9.43197 5.49419 8.94686ZM12 0.400391C15.0306 0.400391 17.6239 2.27286 18.6862 4.92401C21.7619 5.85977 24 8.71872 24 12.1004C24 16.2426 20.6422 19.6004 16.5 19.6004H14.4H8.4H6.6C2.95492 19.6004 0 16.6455 0 13.0004C0 9.95585 2.06147 7.39279 4.86472 6.63089C5.33821 3.11292 8.35234 0.400391 12 0.400391ZM12.5399 5.80039C12.7387 5.80039 12.8999 5.96156 12.8999 6.16039V12.0642L14.5394 10.4247C14.7737 10.1903 15.1536 10.1903 15.388 10.4247L15.8122 10.8489C16.0465 11.0832 16.0465 11.4631 15.8122 11.6974L12.8999 14.6097V14.6504H12.8592L12.4243 15.0853C12.19 15.3196 11.8101 15.3196 11.5758 15.0853L11.1409 14.6504H11.0999V14.6095L8.18794 11.6974C7.95362 11.4631 7.95362 11.0832 8.18794 10.8489L8.6122 10.4247C8.84652 10.1903 9.22642 10.1903 9.46073 10.4247L11.0999 12.0638V6.16039C11.0999 5.96156 11.2611 5.80039 11.4599 5.80039H12.5399Z" fill="#333333"/>
</g>
<defs>
<clipPath id="clip0_1838_1770">
<rect width="24" height="19.2" fill="white" transform="translate(0 0.400391)"/>
</clipPath>
</defs>
</svg>
