<svg width="24" height="24" viewBox="0 0 24 24" fill="none" xmlns="http://www.w3.org/2000/svg">
<path d="M15.5 4H8.5C6.567 4 5 5.567 5 7.5C5 9.433 6.567 11 8.5 11H15.5C17.433 11 19 9.433 19 7.5C19 5.567 17.433 4 15.5 4Z" stroke="#333333" stroke-width="2"/>
<path d="M15.5 9C16.3284 9 17 8.32843 17 7.5C17 6.67157 16.3284 6 15.5 6C14.6716 6 14 6.67157 14 7.5C14 8.32843 14.6716 9 15.5 9Z" fill="#333333"/>
<path d="M15.5 14H8.5C6.567 14 5 15.567 5 17.5C5 19.433 6.567 21 8.5 21H15.5C17.433 21 19 19.433 19 17.5C19 15.567 17.433 14 15.5 14Z" stroke="#333333" stroke-width="2"/>
<path d="M8.5 19C9.32843 19 10 18.3284 10 17.5C10 16.6716 9.32843 16 8.5 16C7.67157 16 7 16.6716 7 17.5C7 18.3284 7.67157 19 8.5 19Z" fill="#333333"/>
</svg>
