<svg width="15" height="15" viewBox="0 0 15 15" fill="none" xmlns="http://www.w3.org/2000/svg">
<path fill-rule="evenodd" clip-rule="evenodd" d="M4.47001 13.0297C4.34299 12.9027 4.26576 12.7344 4.25236 12.5553C4.23897 12.3762 4.29029 12.1982 4.39701 12.0537L4.47001 11.9697L8.93901 7.49973L4.46901 3.02973C4.34214 2.90262 4.26509 2.7342 4.25188 2.55509C4.23867 2.37599 4.29016 2.19809 4.39701 2.05373L4.47001 1.96973C4.59699 1.84271 4.76535 1.76549 4.94446 1.75209C5.12357 1.73869 5.30153 1.79002 5.44601 1.89673L5.53001 1.96973L10.53 6.96973C10.657 7.09672 10.7343 7.26507 10.7476 7.44418C10.761 7.62329 10.7097 7.80126 10.603 7.94573L10.53 8.02973L5.53001 13.0297C5.38938 13.1702 5.19876 13.2491 5.00001 13.2491C4.80125 13.2491 4.61063 13.1702 4.47001 13.0297Z" fill="#616161"/>
</svg>
