<svg width="24" height="25" viewBox="0 0 24 25" fill="none" xmlns="http://www.w3.org/2000/svg">
<path fill-rule="evenodd" clip-rule="evenodd" d="M4 6.5C4 4.84315 5.34315 3.5 7 3.5H17C18.6569 3.5 20 4.84315 20 6.5V18.5C20 20.1569 18.6569 21.5 17 21.5H7C5.34315 21.5 4 20.1569 4 18.5V6.5ZM7 5.5C6.44772 5.5 6 5.94772 6 6.5V18.5C6 19.0523 6.44772 19.5 7 19.5H17C17.5523 19.5 18 19.0523 18 18.5V6.5C18 5.94772 17.5523 5.5 17 5.5H7Z" fill="#333333"/>
<path fill-rule="evenodd" clip-rule="evenodd" d="M8.84339 12.4072C8.76907 12.4816 8.72006 12.5774 8.70333 12.6812L8.56734 13.5243C8.51307 13.8608 8.80406 14.1518 9.14058 14.0975L9.98367 13.9615C10.0874 13.9448 10.1833 13.8958 10.2576 13.8214L15.1746 8.9044C15.3699 8.70914 15.3699 8.39256 15.1746 8.1973L14.4675 7.4902C14.2723 7.29494 13.9557 7.29494 13.7604 7.4902L8.84339 12.4072ZM8.75 15.5005C8.47386 15.5005 8.25 15.7244 8.25 16.0005V16.5005C8.25 16.7766 8.47386 17.0005 8.75 17.0005H15.25C15.5261 17.0005 15.75 16.7766 15.75 16.5005V16.0005C15.75 15.7244 15.5261 15.5005 15.25 15.5005H8.75Z" fill="#333333"/>
</svg>
