<svg width="24" height="24" viewBox="0 0 24 24" fill="none" xmlns="http://www.w3.org/2000/svg">
<path d="M18 6H6C4.89543 6 4 6.89543 4 8V17C4 18.1046 4.89543 19 6 19H18C19.1046 19 20 18.1046 20 17V8C20 6.89543 19.1046 6 18 6Z" stroke="#333333" stroke-width="2"/>
<path d="M20 9H4V11H20V9Z" fill="#333333"/>
<path d="M15.5 13H8.5C8.22386 13 8 13.2239 8 13.5V14.5C8 14.7761 8.22386 15 8.5 15H15.5C15.7761 15 16 14.7761 16 14.5V13.5C16 13.2239 15.7761 13 15.5 13Z" fill="#333333"/>
<path d="M16.5 4H15.5C15.2239 4 15 4.22386 15 4.5V5.5C15 5.77614 15.2239 6 15.5 6H16.5C16.7761 6 17 5.77614 17 5.5V4.5C17 4.22386 16.7761 4 16.5 4Z" fill="#333333"/>
<path d="M8.5 4H7.5C7.22386 4 7 4.22386 7 4.5V5.5C7 5.77614 7.22386 6 7.5 6H8.5C8.77614 6 9 5.77614 9 5.5V4.5C9 4.22386 8.77614 4 8.5 4Z" fill="#333333"/>
</svg>
