<svg width="24" height="24" viewBox="0 0 24 24" fill="none" xmlns="http://www.w3.org/2000/svg">
<path fill-rule="evenodd" clip-rule="evenodd" d="M15.0003 20H20.5001C21.3285 20 22.0001 19.3284 22.0001 18.5V17C22.0001 14.7909 20.2092 13 18.0001 13H15.0001C14.4309 13 13.8896 13.1189 13.3994 13.3331C13.9112 13.8078 14.3235 14.3882 14.6014 15.0397C14.7302 15.0137 14.8635 15 15.0001 15H18.0001C19.1046 15 20.0001 15.8954 20.0001 17V18H15.0003V20Z" fill="#333333"/>
<path d="M7.5 11C9.15685 11 10.5 9.65685 10.5 8C10.5 6.34315 9.15685 5 7.5 5C5.84315 5 4.5 6.34315 4.5 8C4.5 9.65685 5.84315 11 7.5 11Z" stroke="#333333" stroke-width="2"/>
<path d="M16.5 11C18.1569 11 19.5 9.65685 19.5 8C19.5 6.34315 18.1569 5 16.5 5C14.8431 5 13.5 6.34315 13.5 8C13.5 9.65685 14.8431 11 16.5 11Z" stroke="#333333" stroke-width="2"/>
<path d="M3 17C3 15.3431 4.34315 14 6 14H9C10.6569 14 12 15.3431 12 17V18.5C12 18.7761 11.7761 19 11.5 19H3.5C3.22386 19 3 18.7761 3 18.5V17Z" stroke="#333333" stroke-width="2"/>
</svg>
