<svg width="24" height="24" viewBox="0 0 24 24" fill="none" xmlns="http://www.w3.org/2000/svg">
<path d="M17 4H7C5.89543 4 5 4.89543 5 6V18C5 19.1046 5.89543 20 7 20H17C18.1046 20 19 19.1046 19 18V6C19 4.89543 18.1046 4 17 4Z" stroke="#333333" stroke-width="2"/>
<path d="M15 2H9C8.44772 2 8 2.44772 8 3V5C8 5.55228 8.44772 6 9 6H15C15.5523 6 16 5.55228 16 5V3C16 2.44772 15.5523 2 15 2Z" fill="#333333"/>
<path fill-rule="evenodd" clip-rule="evenodd" d="M8.5 9C8.22386 9 8 9.22386 8 9.5V10.5C8 10.7761 8.22386 11 8.5 11H15.5C15.7761 11 16 10.7761 16 10.5V9.5C16 9.22386 15.7761 9 15.5 9H8.5ZM8.5 12C8.22386 12 8 12.2239 8 12.5V13.5C8 13.7761 8.22386 14 8.5 14H13.5C13.7761 14 14 13.7761 14 13.5V12.5C14 12.2239 13.7761 12 13.5 12H8.5Z" fill="#333333"/>
</svg>
