<svg width="24" height="24" viewBox="0 0 24 24" fill="none" xmlns="http://www.w3.org/2000/svg">
<path fill-rule="evenodd" clip-rule="evenodd" d="M12 20.0636C11.7771 20.0866 11.5443 20.0446 11.3331 19.9224C10.2123 19.2738 8.72215 18.5615 7.5 18.5C6.20932 18.4351 4.87248 19.0252 3.83998 19.6484C3.09323 20.099 2 19.5853 2 18.7131V7.7082C2 7.24247 2.10472 6.77888 2.38778 6.40903C3.05667 5.53503 4.63874 4 7.5 4C9.80875 4 11.1962 4.78968 12 5.55874C12.8038 4.78968 14.1912 4 16.5 4C19.3613 4 20.9433 5.53503 21.6122 6.40903C21.8953 6.77888 22 7.24247 22 7.7082V18.7131C22 19.5853 20.9068 20.099 20.16 19.6484C19.1275 19.0252 17.7907 18.4351 16.5 18.5C15.2778 18.5615 13.7877 19.2738 12.6669 19.9224C12.4557 20.0446 12.2229 20.0866 12 20.0636ZM13 7.46413V17.4856C14.016 17.0035 15.2326 16.5612 16.3995 16.5025C17.7212 16.436 18.977 16.8255 20 17.2989V7.7082C20 7.6468 19.9949 7.60537 19.9906 7.58154C19.5377 7.00647 18.4856 6 16.5 6C14.7431 6 13.855 6.56716 13.4191 6.96961C13.2212 7.15222 13.0864 7.32946 13 7.46413ZM11 17.4856C9.98403 17.0035 8.76736 16.5612 7.6005 16.5025C6.27876 16.436 5.02304 16.8255 4 17.2989V7.7082C4 7.6468 4.00508 7.60537 4.00941 7.58154C4.46228 7.00647 5.51438 6 7.5 6C9.25693 6 10.145 6.56716 10.5809 6.96961C10.7788 7.15222 10.9136 7.32946 11 7.46413V17.4856Z" fill="#CCCCCC"/>
</svg>
