<svg width="24" height="24" viewBox="0 0 24 24" fill="none" xmlns="http://www.w3.org/2000/svg">
<path d="M15.9195 7.37313C16.1887 6.89089 16.0191 6.27611 15.5408 5.99998C15.0625 5.72385 14.4566 5.89093 14.1874 6.37317L13.2126 8.11951C12.9434 8.60175 13.1129 9.21653 13.5912 9.49266C14.0695 9.7688 14.6754 9.60171 14.9446 9.11947L15.9195 7.37313Z" fill="#333333"/>
<path fill-rule="evenodd" clip-rule="evenodd" d="M6 8.14713L4.00051 15.6089L6 16.1447V18.2152L3.48285 17.5408C2.41591 17.2549 1.78275 16.1582 2.06865 15.0913L4.65697 5.43209C4.94287 4.36516 6.03956 3.73199 7.10649 4.01786L10.7721 5H8C6.89543 5 6 5.89543 6 7V8.14713Z" fill="#333333"/>
<path fill-rule="evenodd" clip-rule="evenodd" d="M16 6C16.5523 6 17 5.55228 17 5H19C20.1046 5 21 5.89543 21 7V19C21 20.1046 20.1046 21 19 21H8C6.89543 21 6 20.1046 6 19V7C6 5.89543 6.89543 5 8 5H15C15 5.55228 15.4477 6 16 6ZM19 7H8V19H19V7ZM10.5 11C10.2239 11 10 11.2239 10 11.5V12.5C10 12.7761 10.2239 13 10.5 13H16.5C16.7761 13 17 12.7761 17 12.5V11.5C17 11.2239 16.7761 11 16.5 11H10.5ZM10.5 14C10.2239 14 10 14.2239 10 14.5V15.5C10 15.7761 10.2239 16 10.5 16H15.5C15.7761 16 16 15.7761 16 15.5V14.5C16 14.2239 15.7761 14 15.5 14H10.5Z" fill="#333333"/>
<path fill-rule="evenodd" clip-rule="evenodd" d="M16 8C17.6569 8 19 6.65685 19 5C19 3.34315 17.6569 2 16 2C14.3431 2 13 3.34315 13 5C13 6.65685 14.3431 8 16 8ZM16 6C16.5523 6 17 5.55228 17 5C17 4.44772 16.5523 4 16 4C15.4477 4 15 4.44772 15 5C15 5.55228 15.4477 6 16 6Z" fill="#333333"/>
</svg>
