<svg width="19" height="18" viewBox="0 0 19 18" fill="none" xmlns="http://www.w3.org/2000/svg">
<path fill-rule="evenodd" clip-rule="evenodd" d="M9.91843 1.74269C9.91843 1.46654 10.1425 1.241 10.4181 1.2588C11.9189 1.35575 13.3632 1.88779 14.5717 2.79513C15.9138 3.80279 16.8925 5.21888 17.3607 6.8305C17.8289 8.44213 17.7613 10.1621 17.1681 11.7321C16.5749 13.302 15.4881 14.6369 14.0711 15.5362C12.6541 16.4354 10.9834 16.8504 9.31037 16.7187C7.63728 16.5871 6.05214 15.9159 4.79326 14.806C3.53438 13.6961 2.66978 12.2076 2.32945 10.5642C1.99938 8.97043 2.17974 7.31443 2.8428 5.83073L1.75841 5.25415C1.41496 5.07153 1.41363 4.57984 1.75608 4.39537L4.94963 2.67517C5.25559 2.51036 5.63077 2.70985 5.66523 3.05566L6.02493 6.66516C6.0635 7.05222 5.65512 7.32606 5.31166 7.14345L4.21538 6.56054C3.71991 7.72231 3.59039 9.00966 3.84724 10.2499C4.11951 11.5646 4.81119 12.7554 5.81829 13.6433C6.8254 14.5312 8.09351 15.0682 9.43198 15.1735C10.7704 15.2789 12.1069 14.9469 13.2405 14.2275C14.3741 13.5081 15.2436 12.4401 15.7182 11.1842C16.1927 9.92829 16.2468 8.55224 15.8722 7.26294C15.4977 5.97364 14.7147 4.84077 13.641 4.03464C12.701 3.32889 11.5827 2.90696 10.4179 2.81283C10.1427 2.79059 9.91843 2.56883 9.91843 2.29268V1.74269ZM9.49875 8.72491C9.49875 8.85751 9.44608 8.98469 9.35231 9.07846L7.07198 11.3587C6.87672 11.554 6.87672 11.8706 7.07198 12.0658L7.42553 12.4194C7.62079 12.6147 7.93738 12.6147 8.13264 12.4194L10.8523 9.69978C10.9461 9.60601 10.9987 9.47884 10.9987 9.34623V5.74267C10.9987 5.46653 10.7749 5.24267 10.4988 5.24267H9.99875C9.72261 5.24267 9.49875 5.46653 9.49875 5.74267V8.72491Z" fill="#3299FE"/>
</svg>
