<svg width="19" height="18" viewBox="0 0 19 18" fill="none" xmlns="http://www.w3.org/2000/svg">
<path fill-rule="evenodd" clip-rule="evenodd" d="M8.92001 1.74463C8.92001 1.46848 8.6959 1.24295 8.42033 1.26075C6.91949 1.35769 5.47521 1.88973 4.26675 2.79707C2.92467 3.80473 1.94595 5.22082 1.47773 6.83245C1.00952 8.44407 1.0771 10.1642 1.67032 11.7341C2.26354 13.304 3.35035 14.639 4.76735 15.5382C6.18436 16.4375 7.85498 16.8525 9.52807 16.7208C11.2011 16.5891 12.7863 15.9179 14.0452 14.808C15.3041 13.6982 16.1686 12.2097 16.509 10.5663C16.839 8.97241 16.6587 7.31644 15.9957 5.83277L17.0803 5.25609C17.4237 5.07347 17.425 4.58177 17.0826 4.39731L13.889 2.67711C13.5831 2.5123 13.2079 2.71178 13.1734 3.0576L12.8137 6.6671C12.7752 7.05416 13.1836 7.328 13.527 7.14538L14.6231 6.56259C15.1185 7.72433 15.248 9.01164 14.9912 10.252C14.7189 11.5667 14.0272 12.7575 13.0201 13.6454C12.013 14.5332 10.7449 15.0702 9.40646 15.1756C8.06799 15.2809 6.73149 14.9489 5.59789 14.2295C4.46428 13.5101 3.59484 12.4422 3.12026 11.1862C2.64568 9.93023 2.59161 8.55418 2.96619 7.26488C3.34077 5.97558 4.12374 4.84271 5.1974 4.03658C6.13738 3.33083 7.25569 2.9089 8.42054 2.81477C8.69579 2.79253 8.92001 2.57077 8.92001 2.29463V1.74463ZM8.83475 8.72687C8.83475 8.85947 8.78207 8.98665 8.6883 9.08042L6.40797 11.3608C6.21271 11.5561 6.21271 11.8726 6.40797 12.0679L6.76152 12.4215C6.95678 12.6167 7.27337 12.6167 7.46863 12.4215L10.1883 9.70174C10.2821 9.60797 10.3347 9.48079 10.3347 9.34819V5.74463C10.3347 5.46849 10.1109 5.24463 9.83475 5.24463H9.33475C9.0586 5.24463 8.83475 5.46849 8.83475 5.74463V8.72687Z" fill="#999999"/>
</svg>
