<svg width="24" height="25" viewBox="0 0 24 25" fill="none" xmlns="http://www.w3.org/2000/svg">
<path d="M17 4.5H7C5.89543 4.5 5 5.39543 5 6.5V18.5C5 19.6046 5.89543 20.5 7 20.5H17C18.1046 20.5 19 19.6046 19 18.5V6.5C19 5.39543 18.1046 4.5 17 4.5Z" stroke="#333333" stroke-width="2"/>
<path d="M9 11.5226L11.0556 13.6555C11.1619 13.7659 11.3385 13.7662 11.4452 13.6564L15 10" stroke="#333333" stroke-width="2" stroke-linecap="round"/>
<path d="M10 4.5C10 3.39543 10.8954 2.5 12 2.5C13.1046 2.5 14 3.39543 14 4.5V7.12963C14 7.33418 13.8342 7.5 13.6296 7.5H10.3704C10.1658 7.5 10 7.33418 10 7.12963V4.5Z" fill="#333333"/>
</svg>
