<svg width="24" height="24" viewBox="0 0 24 24" fill="none" xmlns="http://www.w3.org/2000/svg">
<path fill-rule="evenodd" clip-rule="evenodd" d="M6.42965 4.25008C6.29158 4.01094 6.37351 3.70514 6.61266 3.56707L7.47869 3.06707C7.71783 2.929 8.02363 3.01094 8.1617 3.25008L9.12087 4.91142C11.1624 4.04752 13.3658 3.98986 15.2064 4.31406C16.2833 4.50372 17.2705 4.82945 18.0687 5.23076C18.8309 5.61396 19.5524 6.13202 19.927 6.78089C20.3832 7.57098 20.2297 8.40996 19.9006 9.08352C19.5772 9.74537 19.0252 10.3895 18.392 10.9882C17.3323 11.99 15.8803 13.0163 14.3473 13.9542L17.6589 19.6901L15.9269 20.6901L12.6177 14.9585C10.9792 15.8607 9.29071 16.6485 7.83731 17.0819C7.00225 17.331 6.1684 17.487 5.43353 17.4361C4.68566 17.3843 3.88237 17.0977 3.42623 16.3076C3.05161 15.6588 2.96375 14.7748 3.01299 13.9232C3.06457 13.0312 3.27609 12.0134 3.65026 10.986C4.30974 9.17523 5.51359 7.2335 7.37725 5.89137L6.42965 4.25008ZM5.00965 14.0386C4.96819 14.7557 5.07611 15.1653 5.15828 15.3076C5.16054 15.3128 5.20539 15.4155 5.57164 15.4409C5.95848 15.4676 6.52586 15.386 7.2657 15.1654C7.53255 15.0858 7.81196 14.9912 8.10149 14.8833C7.67276 13.8024 7.31327 12.4275 7.15073 11.1371C7.055 10.377 7.0206 9.59555 7.099 8.88459C6.40158 9.73458 5.88055 10.7065 5.5295 11.6704C5.21448 12.5354 5.04879 13.3617 5.00965 14.0386ZM12.3947 12.7881C11.5686 13.265 10.7376 13.7088 9.9392 14.0921C9.59762 13.215 9.27948 12.0339 9.13504 10.8871C9.03505 10.0932 9.02805 9.38636 9.12235 8.85456C9.2223 8.29092 9.39394 8.13531 9.44779 8.10422C9.50164 8.07313 9.72222 8.00229 10.2603 8.19756C10.768 8.38179 11.3767 8.7413 12.0142 9.22484C12.9446 9.93053 13.8167 10.8073 14.4058 11.5465C13.7712 11.9676 13.0923 12.3853 12.3947 12.7881ZM17.018 9.53484C16.7266 9.8104 16.3951 10.093 16.0318 10.3788C15.3077 9.45347 14.2784 8.432 13.2228 7.63134C12.5437 7.11628 11.8037 6.65368 11.077 6.3683C12.346 6.06317 13.6668 6.07368 14.8595 6.28375C15.7661 6.44342 16.5645 6.71309 17.1703 7.01764C17.8121 7.3403 18.1128 7.63857 18.195 7.78089C18.1984 7.78545 18.2649 7.87564 18.1037 8.20549C17.9334 8.55389 17.5791 9.00445 17.018 9.53484Z" fill="#333333"/>
<path d="M9 20.6129C9 19.7221 9.72212 19 10.6129 19H19.3871C20.2779 19 21 19.7221 21 20.6129C21 20.8267 20.8267 21 20.6129 21H9.3871C9.17331 21 9 20.8267 9 20.6129Z" fill="#333333"/>
</svg>
