<svg width="18" height="18" viewBox="0 0 18 18" fill="none" xmlns="http://www.w3.org/2000/svg">
<path fill-rule="evenodd" clip-rule="evenodd" d="M4.6129 3.2097L4.70711 3.29289L9 7.585L13.2929 3.29289C13.6834 2.90237 14.3166 2.90237 14.7071 3.29289C15.0676 3.65338 15.0953 4.22061 14.7903 4.6129L14.7071 4.70711L10.415 9L14.7071 13.2929C15.0976 13.6834 15.0976 14.3166 14.7071 14.7071C14.3466 15.0676 13.7794 15.0953 13.3871 14.7903L13.2929 14.7071L9 10.415L4.70711 14.7071C4.31658 15.0976 3.68342 15.0976 3.29289 14.7071C2.93241 14.3466 2.90468 13.7794 3.2097 13.3871L3.29289 13.2929L7.585 9L3.29289 4.70711C2.90237 4.31658 2.90237 3.68342 3.29289 3.29289C3.62334 2.96245 4.12751 2.91161 4.5114 3.14038L4.6129 3.2097Z" fill="#333333"/>
</svg>
