<svg width="24" height="24" viewBox="0 0 24 24" fill="none" xmlns="http://www.w3.org/2000/svg">
<path fill-rule="evenodd" clip-rule="evenodd" d="M15 4.5C15 4.22386 15.2239 4 15.5 4H16.5C16.7761 4 17 4.22386 17 4.5V5H18C19.6569 5 21 6.34315 21 8V17C21 18.6569 19.6569 20 18 20H6C4.34315 20 3 18.6569 3 17V8C3 6.34315 4.34315 5 6 5H7V4.5C7 4.22386 7.22386 4 7.5 4H8.5C8.77614 4 9 4.22386 9 4.5V5H15V4.5ZM5 17V9H19V17C19 17.5523 18.5523 18 18 18H6C5.44772 18 5 17.5523 5 17Z" fill="#333333"/>
<path fill-rule="evenodd" clip-rule="evenodd" d="M15.6971 10.783C16.0931 11.168 16.102 11.8011 15.717 12.1971L12.1622 15.8535C11.6616 16.3684 10.834 16.3666 10.3356 15.8495L8.27996 13.7165C7.89671 13.3189 7.9084 12.6858 8.30607 12.3026C8.70373 11.9193 9.33679 11.931 9.72004 12.3287L11.2531 13.9194L14.283 10.8029C14.668 10.4069 15.3011 10.398 15.6971 10.783Z" fill="#333333"/>
</svg>
