<svg width="20" height="21" viewBox="0 0 20 21" fill="none" xmlns="http://www.w3.org/2000/svg">
<mask id="mask0_1838_1865" style="mask-type:luminance" maskUnits="userSpaceOnUse" x="0" y="0" width="20" height="21">
<path d="M20 0H0V21H20V0Z" fill="white"/>
<path fill-rule="evenodd" clip-rule="evenodd" d="M10 18C14.4183 18 18 14.4183 18 10C18 5.58172 14.4183 2 10 2C5.58172 2 2 5.58172 2 10C2 12.0964 2.8064 14.0045 4.12594 15.431L3.51824 17.699C3.41862 18.0708 3.75883 18.411 4.13061 18.3114L6.64016 17.639C6.78155 17.6011 6.88718 17.5104 6.94882 17.3976C7.88909 17.7858 8.9195 18 10 18Z" fill="black"/>
</mask>
<g mask="url(#mask0_1838_1865)">
<path d="M4.12594 15.431L6.0578 15.9487L6.34337 14.8829L5.59412 14.0729L4.12594 15.431ZM6.94882 17.3976L7.71213 15.549L6.05398 14.8643L5.19375 16.4385L6.94882 17.3976ZM16 10C16 13.3137 13.3137 16 10 16V20C15.5228 20 20 15.5228 20 10H16ZM10 4C13.3137 4 16 6.68629 16 10H20C20 4.47715 15.5228 0 10 0V4ZM4 10C4 6.68629 6.68629 4 10 4V0C4.47715 0 0 4.47715 0 10H4ZM5.59412 14.0729C4.60299 13.0015 4 11.5734 4 10H0C0 12.6195 1.00982 15.0076 2.65777 16.7891L5.59412 14.0729ZM5.45009 18.2167L6.0578 15.9487L2.19409 14.9134L1.58639 17.1814L5.45009 18.2167ZM3.61298 16.3795C4.72832 16.0807 5.74895 17.1013 5.45009 18.2167L1.58639 17.1814C1.08829 19.0403 2.78933 20.7413 4.64825 20.2432L3.61298 16.3795ZM6.12253 15.7071L3.61298 16.3795L4.64825 20.2432L7.1578 19.5708L6.12253 15.7071ZM5.19375 16.4385C5.38097 16.0959 5.70959 15.8178 6.12253 15.7071L7.1578 19.5708C7.85352 19.3844 8.3934 18.9248 8.7039 18.3566L5.19375 16.4385ZM10 16C9.186 16 8.4146 15.839 7.71213 15.549L6.18552 19.2462C7.36362 19.7326 8.6531 20 10 20V16Z" fill="#333333"/>
</g>
<path d="M9.1875 8.96876C9.84334 8.96876 10.375 8.30418 10.375 7.48438C10.375 6.66458 9.84334 6 9.1875 6C8.53166 6 8 6.66458 8 7.48438C8 8.30418 8.53166 8.96876 9.1875 8.96876Z" fill="#333333"/>
<path d="M13.9375 8.96876C14.5933 8.96876 15.125 8.30418 15.125 7.48438C15.125 6.66458 14.5933 6 13.9375 6C13.2817 6 12.75 6.66458 12.75 7.48438C12.75 8.30418 13.2817 8.96876 13.9375 8.96876Z" fill="#333333"/>
<path d="M12.6053 10.9473C13.0994 10.9473 13.5169 11.367 13.3032 11.8125C13.2064 12.0143 13.0755 12.2002 12.9142 12.3615C12.5391 12.7366 12.0304 12.9473 11.5 12.9473C10.9696 12.9473 10.4609 12.7366 10.0858 12.3615C9.92447 12.2002 9.79357 12.0143 9.69677 11.8125C9.48307 11.367 9.90057 10.9473 10.3947 10.9473H11.5H12.6053Z" fill="#333333"/>
</svg>
