<svg width="160" height="160" viewBox="0 0 160 160" fill="none" xmlns="http://www.w3.org/2000/svg">
<path d="M0 0H160V160H0V0Z" fill="#3299FE"/>
<path d="M80 10C98.326 10 116.539 17.544 129.497 30.503C142.456 43.461 150 61.674 150 80C150 98.326 142.456 116.539 129.497 129.497C116.539 142.456 98.326 150 80 150C61.674 150 43.461 142.456 30.503 129.497C17.544 116.539 10 98.326 10 80C10 61.674 17.544 43.461 30.503 30.503C43.461 17.544 61.674 10 80 10V0C59.056 0 38.241 8.622 23.431 23.431C8.622 38.241 0 59.056 0 80C0 100.944 8.622 121.759 23.431 136.569C38.241 151.378 59.056 160 80 160C100.944 160 121.759 151.378 136.569 136.569C151.378 121.759 160 100.944 160 80C160 59.056 151.378 38.241 136.569 23.431C121.759 8.622 100.944 0 80 0V10Z" fill="#84C2FE"/>
</svg>
