<svg width="12" height="11" viewBox="0 0 12 11" fill="none" xmlns="http://www.w3.org/2000/svg">
<g clip-path="url(#clip0_1727_2888)">
<path d="M10.3357 2.58784C10.311 2.5397 10.2752 2.49808 10.2313 2.46638C10.1874 2.43468 10.1367 2.4138 10.0832 2.40542C10.0297 2.39704 9.97501 2.40142 9.92354 2.41818C9.87207 2.43495 9.82528 2.46363 9.787 2.5019L8.467 3.82276C8.4022 3.88662 8.31488 3.92242 8.2239 3.92242C8.13293 3.92242 8.0456 3.88662 7.98081 3.82276L7.41018 3.25128C7.37825 3.21935 7.35293 3.18146 7.33565 3.13975C7.31837 3.09804 7.30947 3.05333 7.30947 3.00818C7.30947 2.96303 7.31837 2.91833 7.33565 2.87662C7.35293 2.8349 7.37825 2.79701 7.41018 2.76508L8.7246 1.45046C8.764 1.41106 8.79323 1.36267 8.80978 1.30947C8.82633 1.25626 8.8297 1.19983 8.81959 1.14503C8.80949 1.09023 8.78621 1.03872 8.75177 0.994912C8.71734 0.951108 8.67276 0.916333 8.6219 0.893582C7.62911 0.449715 6.38989 0.681316 5.6085 1.4569C4.94464 2.11604 4.74677 3.146 5.06602 4.28274C5.08324 4.34336 5.08333 4.40756 5.06631 4.46823C5.04928 4.5289 5.0158 4.58368 4.96956 4.62649L1.39284 7.89319C1.2535 8.01829 1.14111 8.17048 1.06252 8.34045C0.983935 8.51042 0.940799 8.69462 0.935744 8.88181C0.93069 9.06901 0.963823 9.25527 1.03312 9.42923C1.10242 9.6032 1.20644 9.76122 1.33882 9.89367C1.47121 10.0261 1.62919 10.1302 1.80312 10.1996C1.97706 10.2689 2.1633 10.3022 2.3505 10.2972C2.53769 10.2922 2.72191 10.2492 2.89192 10.1707C3.06193 10.0921 3.21416 9.97982 3.33932 9.84053L6.64104 6.25587C6.68324 6.21022 6.73709 6.17696 6.79679 6.15966C6.85649 6.14236 6.91979 6.14167 6.97985 6.15768C7.30348 6.24636 7.63731 6.29236 7.97286 6.29454C8.69043 6.29454 9.32014 6.06229 9.77432 5.61477C10.6154 4.78612 10.7437 3.38061 10.3357 2.58784ZM2.3852 9.60528C2.24371 9.62072 2.10091 9.59187 1.97651 9.5227C1.85211 9.45353 1.75224 9.34745 1.6907 9.21911C1.62915 9.09077 1.60896 8.94649 1.6329 8.80618C1.65685 8.66587 1.72375 8.53645 1.82438 8.43579C1.92501 8.33512 2.05441 8.26817 2.1947 8.24418C2.335 8.22018 2.47929 8.24032 2.60766 8.30183C2.73602 8.36333 2.84213 8.46315 2.91135 8.58753C2.98056 8.7119 3.00947 8.85469 2.99407 8.9962C2.97713 9.15189 2.90755 9.29713 2.79683 9.40789C2.68611 9.51865 2.54089 9.58828 2.3852 9.60528Z" fill="#2D3748"/>
</g>
<defs>
<clipPath id="clip0_1727_2888">
<rect width="11" height="11" fill="white" transform="translate(0.247498 -0.00195312)"/>
</clipPath>
</defs>
</svg>
