<svg width="12" height="11" viewBox="0 0 12 11" fill="none" xmlns="http://www.w3.org/2000/svg">
<g clip-path="url(#clip0_1727_2896)">
<path d="M6.60536 5.32587C6.62229 5.32589 6.63885 5.3209 6.65296 5.31154C6.66706 5.30218 6.67809 5.28886 6.68465 5.27325C6.69122 5.25765 6.69302 5.24045 6.68985 5.22382C6.68668 5.20719 6.67866 5.19187 6.66681 5.17978L4.98243 3.46704C4.97046 3.45489 4.95515 3.44657 4.93844 3.44315C4.92172 3.43973 4.90437 3.44136 4.88859 3.44784C4.87281 3.45431 4.85931 3.46534 4.84981 3.47951C4.84032 3.49368 4.83525 3.51036 4.83527 3.52741V5.06806C4.83527 5.13644 4.86243 5.20201 4.91078 5.25036C4.95913 5.29871 5.0247 5.32587 5.09308 5.32587H6.60536Z" fill="#2D3748"/>
<path d="M4.42706 5.73437C4.33882 5.64732 4.2687 5.54363 4.22076 5.42932C4.17282 5.315 4.14801 5.19232 4.14777 5.06836V3.0918H2.60089C2.23655 3.09287 1.88744 3.23809 1.62981 3.49571C1.37218 3.75334 1.22697 4.10246 1.22589 4.4668V9.2793C1.22589 9.64397 1.37076 9.9937 1.62862 10.2516C1.88648 10.5094 2.23622 10.6543 2.60089 10.6543H5.69464C6.05931 10.6543 6.40905 10.5094 6.66691 10.2516C6.92477 9.9937 7.06964 9.64397 7.06964 9.2793V6.01367H5.09308C4.96911 6.01349 4.8464 5.98872 4.73208 5.94077C4.61775 5.89283 4.51408 5.82268 4.42706 5.73437Z" fill="#2D3748"/>
<path d="M8.18683 2.57587H9.69911C9.71604 2.57589 9.7326 2.5709 9.74671 2.56154C9.76081 2.55218 9.77184 2.53886 9.7784 2.52325C9.78497 2.50765 9.78677 2.49045 9.7836 2.47382C9.78042 2.45719 9.77241 2.44187 9.76056 2.42978L8.07618 0.717044C8.06421 0.704889 8.0489 0.696572 8.03219 0.693152C8.01547 0.689731 7.99812 0.691362 7.98234 0.697836C7.96656 0.70431 7.95306 0.715335 7.94356 0.729507C7.93407 0.743679 7.929 0.760356 7.92902 0.777415V2.31806C7.92902 2.38643 7.95618 2.45201 8.00453 2.50036C8.05288 2.54871 8.11845 2.57587 8.18683 2.57587Z" fill="#2D3748"/>
<path d="M8.18683 3.26367C7.93671 3.26176 7.69737 3.16155 7.5205 2.98468C7.34363 2.80782 7.24343 2.56848 7.24152 2.31836V0.341797H4.9212C4.57944 0.342195 4.2518 0.478134 4.01014 0.719794C3.76848 0.961454 3.63254 1.2891 3.63214 1.63086V2.4043H4.53706C4.65257 2.40476 4.76684 2.42804 4.87332 2.4728C4.9798 2.51756 5.07639 2.58292 5.15753 2.66512L7.50277 5.04988C7.66638 5.21589 7.75774 5.43985 7.75693 5.67293V8.59179H8.89667C9.59513 8.59179 10.1632 8.01344 10.1632 7.30273V3.26367H8.18683Z" fill="black"/>
</g>
<defs>
<clipPath id="clip0_1727_2896">
<rect width="11" height="11" fill="white" transform="translate(0.194641 -0.00195312)"/>
</clipPath>
</defs>
</svg>
