<svg width="16" height="18" viewBox="0 0 16 18" fill="none" xmlns="http://www.w3.org/2000/svg">
<mask id="mask0_1838_1797" style="mask-type:luminance" maskUnits="userSpaceOnUse" x="0" y="0" width="16" height="18">
<path fill-rule="evenodd" clip-rule="evenodd" d="M0.61605 5.23427L6.9941 0.342911C7.5912 -0.114969 8.438 -0.114229 9.0342 0.344691L15.3863 5.23429C15.7742 5.53289 16 5.98501 16 6.46306V16.4265C16 17.2955 15.268 18 14.3651 18H1.63492C0.73198 18 0 17.2955 0 16.4265V6.46482C0 5.98577 0.22676 5.53281 0.61605 5.23427Z" fill="white"/>
</mask>
<g mask="url(#mask0_1838_1797)">
<path d="M1.83314 6.8213L8.2112 1.92994L5.77701 -1.24412L-0.60105 3.64724L1.83314 6.8213ZM8.2112 1.92994C8.1445 1.98113 8.0725 2.00005 8.0127 2C7.953 1.99995 7.881 1.9809 7.8142 1.92953L10.2541 -1.24015C8.9398 -2.25185 7.093 -2.25339 5.77701 -1.24412L8.2112 1.92994ZM7.8142 1.92953L14.1663 6.81913L16.6062 3.64945L10.2541 -1.24015L7.8142 1.92953ZM14.1663 6.81913C14.0762 6.74976 14 6.62296 14 6.46306H18C18 5.34707 17.4722 4.31602 16.6062 3.64945L14.1663 6.81913ZM14 6.46306V16.4265H18V6.46306H14ZM14 16.4265C14 16.1194 14.2364 16 14.3651 16V20C16.2997 20 18 18.4716 18 16.4265H14ZM14.3651 16H1.63492V20H14.3651V16ZM1.63492 16C1.76363 16 2 16.1194 2 16.4265H-2C-2 18.4716 -0.29967 20 1.63492 20V16ZM2 16.4265V6.46482H-2V16.4265H2ZM2 6.46482C2 6.62507 1.92348 6.75202 1.83314 6.8213L-0.60105 3.64724C-1.46996 4.3136 -2 5.34646 -2 6.46482H2Z" fill="#333333"/>
</g>
</svg>
