<svg width="20" height="20" viewBox="0 0 20 20" fill="none" xmlns="http://www.w3.org/2000/svg">
<mask id="mask0_1838_814" style="mask-type:luminance" maskUnits="userSpaceOnUse" x="0" y="0" width="20" height="20">
<path fill-rule="evenodd" clip-rule="evenodd" d="M13.8913 0.461528C13.6246 0.532998 13.4663 0.807168 13.5377 1.0739L13.6671 1.55687L1.34896 7.00059C0.447209 7.39909 -0.0296312 8.39527 0.225539 9.34757L1.66503 14.7199C1.91527 15.6537 2.7977 16.2749 3.76124 16.1955L4.4989 16.1346L5.24058 18.9026C5.31205 19.1694 5.58622 19.3277 5.85295 19.2562L6.81888 18.9974C7.08561 18.9259 7.2439 18.6517 7.17243 18.385L6.52469 15.9676L17.2906 15.0799L17.42 15.5628C17.4915 15.8296 17.7657 15.9878 18.0324 15.9164L18.9983 15.6576C19.265 15.5861 19.4233 15.3119 19.3519 15.0452L15.4696 0.556268C15.3981 0.289528 15.1239 0.131238 14.8572 0.202708L13.8913 0.461528Z" fill="white"/>
</mask>
<g mask="url(#mask0_1838_814)">
<path d="M13.6671 1.55736L14.4756 3.38669L16.0423 2.69429L15.599 1.03972L13.6671 1.55736ZM4.49888 16.1351L6.43073 15.6175L5.99858 14.0047L4.33452 14.1419L4.49888 16.1351ZM6.52467 15.9681L6.36031 13.9749L3.97279 14.1717L4.59282 16.4857L6.52467 15.9681ZM17.2906 15.0804L19.2225 14.5627L18.7903 12.9499L17.1262 13.0871L17.2906 15.0804ZM15.4696 0.556763C15.684 1.35696 15.2091 2.17946 14.4089 2.39387L13.3736 -1.46983C12.04 -1.11247 11.2485 0.258373 11.6059 1.59203L15.4696 0.556763ZM15.599 1.03972L15.4696 0.556763L11.6059 1.59203L11.7353 2.07499L15.599 1.03972ZM12.8587 -0.271967L0.540518 5.17175L2.15737 8.83036L14.4756 3.38669L12.8587 -0.271967ZM0.540518 5.17175C-1.26298 5.96875 -2.21667 7.96111 -1.70634 9.86566L2.15737 8.83036L0.540518 5.17175ZM-1.70634 9.86566L-0.266842 15.238L3.59687 14.2027L2.15737 8.83036L-1.70634 9.86566ZM-0.266842 15.238C0.233618 17.1058 1.99848 18.3481 3.92558 18.1892L3.59687 14.2027L-0.266842 15.238ZM3.92558 18.1892L4.66324 18.1284L4.33452 14.1419L3.59687 14.2027L3.92558 18.1892ZM2.56703 16.6528L3.30871 19.4208L7.17241 18.3855L6.43073 15.6175L2.56703 16.6528ZM3.30871 19.4208C3.66606 20.7544 5.0369 21.5459 6.37057 21.1885L5.33529 17.3248C6.13549 17.1104 6.958 17.5853 7.17241 18.3855L3.30871 19.4208ZM6.37057 21.1885L7.3365 20.9297L6.30122 17.066L5.33529 17.3248L6.37057 21.1885ZM7.3365 20.9297C8.67021 20.5724 9.46161 19.2015 9.10431 17.8679L5.24056 18.9031C5.02615 18.1029 5.50102 17.2804 6.30122 17.066L7.3365 20.9297ZM9.10431 17.8679L8.45651 15.4505L4.59282 16.4857L5.24056 18.9031L9.10431 17.8679ZM6.68903 17.9613L17.455 17.0736L17.1262 13.0871L6.36031 13.9749L6.68903 17.9613ZM19.3519 15.0457L19.2225 14.5627L15.3588 15.598L15.4882 16.081L19.3519 15.0457ZM17.5148 13.985C18.315 13.7706 19.1375 14.2455 19.3519 15.0457L15.4882 16.081C15.8455 17.4146 17.2164 18.2061 18.55 17.8487L17.5148 13.985ZM18.4807 13.7262L17.5148 13.985L18.55 17.8487L19.516 17.5899L18.4807 13.7262ZM17.42 15.5633C17.2056 14.7631 17.6805 13.9406 18.4807 13.7262L19.516 17.5899C20.8496 17.2326 21.6411 15.8617 21.2837 14.528L17.42 15.5633ZM13.5377 1.07439L17.42 15.5633L21.2837 14.528L17.4014 0.0391226L13.5377 1.07439ZM15.3748 2.13505C14.5746 2.34947 13.7521 1.87459 13.5377 1.07439L17.4014 0.0391226C17.0441 -1.29455 15.6732 -2.086 14.3396 -1.72865L15.3748 2.13505ZM14.4089 2.39387L15.3748 2.13505L14.3396 -1.72865L13.3736 -1.46983L14.4089 2.39387Z" fill="#333333"/>
</g>
</svg>
