<svg width="25" height="26" viewBox="0 0 25 26" fill="none" xmlns="http://www.w3.org/2000/svg">
<g clip-path="url(#clip0_1684_1081)">
<path d="M22.9167 3.73779H2.08333C0.93316 3.73779 0 4.67095 0 5.82113V21.0989C0 22.2491 0.93316 23.1822 2.08333 23.1822H22.9167C24.0668 23.1822 25 22.2491 25 21.0989V5.82113C25 4.67095 24.0668 3.73779 22.9167 3.73779ZM7.63889 7.90446C9.17101 7.90446 10.4167 9.15012 10.4167 10.6822C10.4167 12.2144 9.17101 13.46 7.63889 13.46C6.10677 13.46 4.86111 12.2144 4.86111 10.6822C4.86111 9.15012 6.10677 7.90446 7.63889 7.90446ZM12.5 18.1822C12.5 18.6423 12.066 19.0156 11.5278 19.0156H3.75C3.21181 19.0156 2.77778 18.6423 2.77778 18.1822V17.3489C2.77778 15.9687 4.0842 14.8489 5.69444 14.8489H5.91146C6.44531 15.0703 7.02691 15.1961 7.63889 15.1961C8.25087 15.1961 8.83681 15.0703 9.36632 14.8489H9.58333C11.1936 14.8489 12.5 15.9687 12.5 17.3489V18.1822ZM22.2222 15.8906C22.2222 16.0815 22.066 16.2378 21.875 16.2378H15.625C15.434 16.2378 15.2778 16.0815 15.2778 15.8906V15.1961C15.2778 15.0052 15.434 14.8489 15.625 14.8489H21.875C22.066 14.8489 22.2222 15.0052 22.2222 15.1961V15.8906ZM22.2222 13.1128C22.2222 13.3038 22.066 13.46 21.875 13.46H15.625C15.434 13.46 15.2778 13.3038 15.2778 13.1128V12.4183C15.2778 12.2274 15.434 12.0711 15.625 12.0711H21.875C22.066 12.0711 22.2222 12.2274 22.2222 12.4183V13.1128ZM22.2222 10.335C22.2222 10.526 22.066 10.6822 21.875 10.6822H15.625C15.434 10.6822 15.2778 10.526 15.2778 10.335V9.64057C15.2778 9.4496 15.434 9.29335 15.625 9.29335H21.875C22.066 9.29335 22.2222 9.4496 22.2222 9.64057V10.335Z" fill="#99999B" fill-opacity="0.607843"/>
</g>
<defs>
<clipPath id="clip0_1684_1081">
<rect width="25" height="25" fill="white" transform="translate(0 0.959961)"/>
</clipPath>
</defs>
</svg>
