<svg width="26" height="26" viewBox="0 0 26 26" fill="none" xmlns="http://www.w3.org/2000/svg">
<g clip-path="url(#clip0_1684_1095)">
<path d="M1.92822 22.9893C1.92822 24.2832 2.97803 25.333 4.27197 25.333H21.4595C22.7534 25.333 23.8032 24.2832 23.8032 22.9893V9.70801H1.92822V22.9893ZM17.5532 13.4189C17.5532 13.0967 17.8169 12.833 18.1392 12.833H20.0923C20.4146 12.833 20.6782 13.0967 20.6782 13.4189V15.3721C20.6782 15.6943 20.4146 15.958 20.0923 15.958H18.1392C17.8169 15.958 17.5532 15.6943 17.5532 15.3721V13.4189ZM17.5532 19.6689C17.5532 19.3467 17.8169 19.083 18.1392 19.083H20.0923C20.4146 19.083 20.6782 19.3467 20.6782 19.6689V21.6221C20.6782 21.9443 20.4146 22.208 20.0923 22.208H18.1392C17.8169 22.208 17.5532 21.9443 17.5532 21.6221V19.6689ZM11.3032 13.4189C11.3032 13.0967 11.5669 12.833 11.8892 12.833H13.8423C14.1646 12.833 14.4282 13.0967 14.4282 13.4189V15.3721C14.4282 15.6943 14.1646 15.958 13.8423 15.958H11.8892C11.5669 15.958 11.3032 15.6943 11.3032 15.3721V13.4189ZM11.3032 19.6689C11.3032 19.3467 11.5669 19.083 11.8892 19.083H13.8423C14.1646 19.083 14.4282 19.3467 14.4282 19.6689V21.6221C14.4282 21.9443 14.1646 22.208 13.8423 22.208H11.8892C11.5669 22.208 11.3032 21.9443 11.3032 21.6221V19.6689ZM5.05322 13.4189C5.05322 13.0967 5.31689 12.833 5.63916 12.833H7.59229C7.91455 12.833 8.17822 13.0967 8.17822 13.4189V15.3721C8.17822 15.6943 7.91455 15.958 7.59229 15.958H5.63916C5.31689 15.958 5.05322 15.6943 5.05322 15.3721V13.4189ZM5.05322 19.6689C5.05322 19.3467 5.31689 19.083 5.63916 19.083H7.59229C7.91455 19.083 8.17822 19.3467 8.17822 19.6689V21.6221C8.17822 21.9443 7.91455 22.208 7.59229 22.208H5.63916C5.31689 22.208 5.05322 21.9443 5.05322 21.6221V19.6689ZM21.4595 3.45801H19.1157V1.11426C19.1157 0.68457 18.7642 0.333008 18.3345 0.333008H16.772C16.3423 0.333008 15.9907 0.68457 15.9907 1.11426V3.45801H9.74072V1.11426C9.74072 0.68457 9.38916 0.333008 8.95947 0.333008H7.39697C6.96729 0.333008 6.61572 0.68457 6.61572 1.11426V3.45801H4.27197C2.97803 3.45801 1.92822 4.50781 1.92822 5.80176V8.14551H23.8032V5.80176C23.8032 4.50781 22.7534 3.45801 21.4595 3.45801Z" fill="#99999B"/>
</g>
<defs>
<clipPath id="clip0_1684_1095">
<rect width="25" height="25" fill="white" transform="translate(0.365723 0.333008)"/>
</clipPath>
</defs>
</svg>
