<svg width="25" height="26" viewBox="0 0 25 26" fill="none" xmlns="http://www.w3.org/2000/svg">
<g clip-path="url(#clip0_1684_1078)">
<path d="M11.9999 18.7359C9.03702 18.7359 6.63859 16.4426 6.41788 13.5363L2.32023 10.3695C1.78156 11.0453 1.28585 11.7598 0.885853 12.541C0.796494 12.7178 0.749937 12.9131 0.749937 13.1111C0.749937 13.3092 0.796494 13.5045 0.885853 13.6813C3.00421 17.8145 7.19796 20.6109 11.9999 20.6109C13.0511 20.6109 14.0652 20.4547 15.0425 20.2023L13.0155 18.634C12.6808 18.6987 12.3408 18.7328 11.9999 18.7359ZM24.2585 21.0055L19.9402 17.668C21.2519 16.5625 22.3308 15.2072 23.114 13.6809C23.2033 13.5041 23.2499 13.3088 23.2499 13.1107C23.2499 12.9127 23.2033 12.7174 23.114 12.5406C20.9956 8.40743 16.8019 5.61094 11.9999 5.61094C9.98878 5.61338 8.01031 6.11968 6.24523 7.0836L1.2757 3.24258C1.21089 3.19216 1.13679 3.15499 1.05762 3.13322C0.978444 3.11144 0.895757 3.10548 0.814281 3.11567C0.732804 3.12587 0.654135 3.15202 0.582768 3.19263C0.511401 3.23324 0.448736 3.28751 0.398353 3.35235L-0.368444 4.33946C-0.470163 4.47031 -0.515743 4.63621 -0.495159 4.80066C-0.474574 4.96512 -0.389511 5.11467 -0.258678 5.21641L22.7241 22.9793C22.7889 23.0297 22.863 23.0669 22.9422 23.0887C23.0214 23.1104 23.1041 23.1164 23.1856 23.1062C23.267 23.096 23.3457 23.0699 23.4171 23.0293C23.4884 22.9886 23.5511 22.9344 23.6015 22.8695L24.3687 21.8824C24.4703 21.7515 24.5159 21.5856 24.4952 21.4211C24.4745 21.2567 24.3894 21.1072 24.2585 21.0055ZM17.0819 15.4586L15.5468 14.2719C15.6761 13.8982 15.7446 13.5063 15.7499 13.1109C15.7575 12.5321 15.6293 11.9596 15.3755 11.4394C15.1217 10.9191 14.7495 10.4656 14.2886 10.1153C13.8278 9.76503 13.2912 9.52771 12.7221 9.4224C12.1529 9.3171 11.5669 9.34675 11.0112 9.50899C11.2468 9.82817 11.3742 10.2143 11.3749 10.6109C11.3691 10.7429 11.3489 10.8739 11.3148 11.0016L8.43937 8.7793C9.43819 7.94462 10.6982 7.4869 11.9999 7.48594C12.7387 7.48553 13.4704 7.63075 14.153 7.91328C14.8356 8.19582 15.4559 8.61014 15.9783 9.13255C16.5007 9.65496 16.915 10.2752 17.1976 10.9579C17.4801 11.6405 17.6253 12.3721 17.6249 13.1109C17.6249 13.9559 17.4183 14.7434 17.0819 15.459V15.4586Z" fill="#E2E8F0"/>
</g>
<defs>
<clipPath id="clip0_1684_1078">
<rect width="25" height="25" fill="white" transform="translate(0 0.61084)"/>
</clipPath>
</defs>
</svg>
