<svg width="25" height="26" viewBox="0 0 25 26" fill="none" xmlns="http://www.w3.org/2000/svg">
<g clip-path="url(#clip0_1684_1075)">
<path d="M21.5312 12.6109H9.42188V7.57671C9.42188 5.64311 10.9697 4.03667 12.9033 4.01714C14.8564 3.99761 16.4531 5.58452 16.4531 7.53276V8.31401C16.4531 8.96343 16.9756 9.48589 17.625 9.48589H19.1875C19.8369 9.48589 20.3594 8.96343 20.3594 8.31401V7.53276C20.3594 3.4312 17.0146 0.0962395 12.9131 0.110888C8.81152 0.125536 5.51562 3.50444 5.51562 7.60601V12.6109H4.34375C3.0498 12.6109 2 13.6607 2 14.9546V22.7671C2 24.0611 3.0498 25.1109 4.34375 25.1109H21.5312C22.8252 25.1109 23.875 24.0611 23.875 22.7671V14.9546C23.875 13.6607 22.8252 12.6109 21.5312 12.6109Z" fill="#99999B"/>
</g>
<defs>
<clipPath id="clip0_1684_1075">
<rect width="25" height="25" fill="white" transform="translate(0 0.61084)"/>
</clipPath>
</defs>
</svg>
