<svg width="25" height="26" viewBox="0 0 25 26" fill="none" xmlns="http://www.w3.org/2000/svg">
<g clip-path="url(#clip0_1684_1085)">
<path d="M21.0938 0.309082H3.90625C2.6123 0.309082 1.5625 1.35889 1.5625 2.65283V22.9653C1.5625 24.2593 2.6123 25.3091 3.90625 25.3091H21.0938C22.3877 25.3091 23.4375 24.2593 23.4375 22.9653V2.65283C23.4375 1.35889 22.3877 0.309082 21.0938 0.309082ZM12.5 23.7466C11.6357 23.7466 10.9375 23.0483 10.9375 22.1841C10.9375 21.3198 11.6357 20.6216 12.5 20.6216C13.3643 20.6216 14.0625 21.3198 14.0625 22.1841C14.0625 23.0483 13.3643 23.7466 12.5 23.7466ZM21.0938 18.4731C21.0938 18.7954 20.8301 19.0591 20.5078 19.0591H4.49219C4.16992 19.0591 3.90625 18.7954 3.90625 18.4731V3.23877C3.90625 2.9165 4.16992 2.65283 4.49219 2.65283H20.5078C20.8301 2.65283 21.0938 2.9165 21.0938 3.23877V18.4731Z" fill="#99999B"/>
</g>
<defs>
<clipPath id="clip0_1684_1085">
<rect width="25" height="25" fill="white" transform="translate(0 0.309082)"/>
</clipPath>
</defs>
</svg>
