<svg width="25" height="26" viewBox="0 0 25 26" fill="none" xmlns="http://www.w3.org/2000/svg">
<g clip-path="url(#clip0_1684_1071)">
<path d="M12.8394 14.3242C16.7212 14.3242 19.8706 11.1748 19.8706 7.29297C19.8706 3.41113 16.7212 0.261719 12.8394 0.261719C8.95752 0.261719 5.80811 3.41113 5.80811 7.29297C5.80811 11.1748 8.95752 14.3242 12.8394 14.3242ZM19.0894 15.8867H16.3989C15.3149 16.3848 14.1089 16.668 12.8394 16.668C11.5698 16.668 10.3687 16.3848 9.27979 15.8867H6.58936C3.13721 15.8867 0.339355 18.6846 0.339355 22.1367V22.918C0.339355 24.2119 1.38916 25.2617 2.68311 25.2617H22.9956C24.2896 25.2617 25.3394 24.2119 25.3394 22.918V22.1367C25.3394 18.6846 22.5415 15.8867 19.0894 15.8867Z" fill="#99999B"/>
</g>
<defs>
<clipPath id="clip0_1684_1071">
<rect width="25" height="25" fill="white" transform="translate(0 0.261719)"/>
</clipPath>
</defs>
</svg>
